{
.appVersion = "3151";
DisplayStrings = (
"RbmpvVNnIiGghhHH\012lqabcvnlawepouw/space yqpweqwerpqpowiuetqpoPUNMONU/space EO",
m,
X,
A,
"\012aAz",
"PW\012qwertyuiop\012BIMcCCMasdfghjkltstIG\012prtbs\012GB00-\012\012\012\012",
FIOSX,
k,
KC,
"EKKeu\012",
"\012PpRp",
WFaklaFrSs,
"/space ARTWORKft\012NUT",
"aS\012EEEEEEEeeTMT\012ee\012TILL/space IT\012g/space wW\012SsshHSs\012EVIL/space BOY",
"MmDdj\012Om1FS1BG\012",
"R\012p",
"hlH*5e\012QQ\012ff",
"\012&",
"&FCwwWcIpC",
BFE,
"ABCDEFGHIJKLMNOPQRLSU/space VWXYZabcdefghijklmnopqrstuvwZx0123456789!*-/space &\012",
"abcdefhghvjklmnopqrs\012x-+ort-tsuvw+gcxytz+Ltnvt0^...\012<>lzHSBcCtszttH"
);
customParameters = (
{
name = Axes;
value = (
{
Name = Weight;
Tag = wght;
}
);
}
);
date = "2017-12-23 11:37:19 +0000";
familyName = Icon;
fontMaster = (
{
ascender = 1280;
capHeight = 700;
descender = -448;
id = "D4EE34A4-BBD8-48A5-B1C1-325A5896F021";
name = Light;
userData = {
GSOffsetHorizontal = -120;
GSOffsetVertical = -120;
};
weight = "";
weightValue = 50;
xHeight = 768;
},
{
ascender = 1280;
capHeight = 700;
custom = Heavy;
descender = -448;
id = m002;
userData = {
GSOffsetHorizontal = -120;
GSOffsetVertical = -120;
};
weightValue = 500;
xHeight = 768;
}
);
glyphs = (
{
glyphname = B;
lastChange = "2020-12-12 01:21:28 +0000";
layers = (
{
layerId = "D4EE34A4-BBD8-48A5-B1C1-325A5896F021";
paths = (
{
closed = 1;
nodes = (
"538 525 LINE",
"538 575 LINE",
"108 575 LINE",
"108 525 LINE"
);
},
{
closed = 1;
nodes = (
"1908 525 LINE",
"1908 575 LINE",
"1478 575 LINE",
"1478 525 LINE"
);
},
{
closed = 1;
nodes = (
"983 1020 LINE",
"1033 1020 LINE",
"1033 1450 LINE",
"983 1450 LINE"
);
},
{
closed = 1;
nodes = (
"983 -350 LINE",
"1033 -350 LINE",
"1033 80 LINE",
"983 80 LINE"
);
},
{
closed = 1;
nodes = (
"658 865 LINE",
"693 900 LINE",
"389 1204 LINE",
"354 1169 LINE"
);
},
{
closed = 1;
nodes = (
"1627 -104 LINE",
"1662 -69 LINE",
"1358 235 LINE",
"1323 200 LINE"
);
},
{
closed = 1;
nodes = (
"1323 900 LINE",
"1358 865 LINE",
"1662 1169 LINE",
"1627 1204 LINE"
);
},
{
closed = 1;
nodes = (
"354 -69 LINE",
"389 -104 LINE",
"693 200 LINE",
"658 235 LINE"
);
},
{
closed = 1;
nodes = (
"1226 150 OFFCURVE",
"1408 332 OFFCURVE",
"1408 550 CURVE SMOOTH",
"1408 768 OFFCURVE",
"1226 950 OFFCURVE",
"1008 950 CURVE SMOOTH",
"790 950 OFFCURVE",
"608 768 OFFCURVE",
"608 550 CURVE SMOOTH",
"608 332 OFFCURVE",
"790 150 OFFCURVE",
"1008 150 CURVE SMOOTH"
);
},
{
closed = 1;
nodes = (
"817 200 OFFCURVE",
"658 359 OFFCURVE",
"658 550 CURVE SMOOTH",
"658 741 OFFCURVE",
"817 900 OFFCURVE",
"1008 900 CURVE SMOOTH",
"1199 900 OFFCURVE",
"1358 741 OFFCURVE",
"1358 550 CURVE SMOOTH",
"1358 360 OFFCURVE",
"1199 200 OFFCURVE",
"1008 200 CURVE SMOOTH"
);
}
);
width = 2016;
},
{
layerId = m002;
paths = (
{
closed = 1;
nodes = (
"508 350 LINE",
"508 750 LINE",
"108 650 LINE",
"108 450 LINE"
);
},
{
closed = 1;
nodes = (
"1908 450 LINE",
"1908 650 LINE",
"1508 750 LINE",
"1508 350 LINE"
);
},
{
closed = 1;
nodes = (
"808 1050 LINE",
"1208 1050 LINE",
"1108 1450 LINE",
"908 1450 LINE"
);
},
{
closed = 1;
nodes = (
"908 -350 LINE",
"1108 -350 LINE",
"1208 50 LINE",
"808 50 LINE"
);
},
{
closed = 1;
nodes = (
"513 762 LINE",
"796 1045 LINE",
"442 1257 LINE",
"301 1116 LINE"
);
},
{
closed = 1;
nodes = (
"1574 -157 LINE",
"1715 -16 LINE",
"1503 338 LINE",
"1220 55 LINE"
);
},
{
closed = 1;
nodes = (
"1220 1045 LINE",
"1503 762 LINE",
"1715 1116 LINE",
"1574 1257 LINE"
);
},
{
closed = 1;
nodes = (
"301 -16 LINE",
"442 -157 LINE",
"796 55 LINE",
"513 338 LINE"
);
},
{
closed = 1;
nodes = (
"1227 150 OFFCURVE",
"1408 332 OFFCURVE",
"1408 550 CURVE SMOOTH",
"1408 769 OFFCURVE",
"1227 950 OFFCURVE",
"1008 950 CURVE SMOOTH",
"789 950 OFFCURVE",
"608 769 OFFCURVE",
"608 550 CURVE SMOOTH",
"608 331 OFFCURVE",
"791 150 OFFCURVE",
"1008 150 CURVE SMOOTH"
);
},
{
closed = 1;
nodes = (
"1005 545 OFFCURVE",
"1003 547 OFFCURVE",
"1003 550 CURVE SMOOTH",
"1003 553 OFFCURVE",
"1005 555 OFFCURVE",
"1008 555 CURVE SMOOTH",
"1011 555 OFFCURVE",
"1013 553 OFFCURVE",
"1013 550 CURVE SMOOTH",
"1013 547 OFFCURVE",
"1011 545 OFFCURVE",
"1008 545 CURVE SMOOTH"
);
}
);
width = 2016;
}
);
unicode = 0042;
},
{
glyphname = C;
lastChange = "2020-12-12 00:50:17 +0000";
layers = (
{
background = {
paths = (
{
closed = 1;
nodes = (
"1018 298 OFFCURVE",
"844 19 OFFCURVE",
"586 -130 CURVE",
"713 -204 OFFCURVE",
"861 -246 OFFCURVE",
"1018 -246 CURVE",
"1175 -246 OFFCURVE",
"1323 -204 OFFCURVE",
"1450 -130 CURVE",
"1192 19 OFFCURVE",
"1018 298 OFFCURVE",
"1018 618 CURVE"
);
},
{
closed = 1;
nodes = (
"1018 938 OFFCURVE",
"1192 1217 OFFCURVE",
"1450 1366 CURVE",
"1323 1440 OFFCURVE",
"1175 1482 OFFCURVE",
"1018 1482 CURVE",
"861 1482 OFFCURVE",
"713 1440 OFFCURVE",
"586 1366 CURVE",
"844 1217 OFFCURVE",
"1018 938 OFFCURVE",
"1018 618 CURVE"
);
},
{
closed = 1;
nodes = (
"1338 618 OFFCURVE",
"1617 444 OFFCURVE",
"1766 186 CURVE",
"1840 313 OFFCURVE",
"1882 461 OFFCURVE",
"1882 618 CURVE",
"1882 775 OFFCURVE",
"1840 923 OFFCURVE",
"1766 1050 CURVE",
"1617 792 OFFCURVE",
"1338 618 OFFCURVE",
"1018 618 CURVE"
);
},
{
closed = 1;
nodes = (
"698 618 OFFCURVE",
"419 792 OFFCURVE",
"270 1050 CURVE",
"196 923 OFFCURVE",
"154 775 OFFCURVE",
"154 618 CURVE",
"154 461 OFFCURVE",
"196 313 OFFCURVE",
"270 186 CURVE",
"419 444 OFFCURVE",
"698 618 OFFCURVE",
"1018 618 CURVE"
);
}
);
};
layerId = "D4EE34A4-BBD8-48A5-B1C1-325A5896F021";
paths = (
{
closed = 1;
nodes = (
"380 1150 OFFCURVE",
"108 878 OFFCURVE",
"108 550 CURVE SMOOTH",
"108 222 OFFCURVE",
"380 -50 OFFCURVE",
"708 -50 CURVE SMOOTH",
"1036 -50 OFFCURVE",
"1308 223 OFFCURVE",
"1308 550 CURVE",
"1258 550 LINE",
"1258 245 OFFCURVE",
"1013 0 OFFCURVE",
"708 0 CURVE SMOOTH",
"403 0 OFFCURVE",
"158 245 OFFCURVE",
"158 550 CURVE SMOOTH",
"158 855 OFFCURVE",
"403 1100 OFFCURVE",
"708 1100 CURVE",
"708 1150 LINE"
);
},
{
closed = 1;
nodes = (
"1636 -50 OFFCURVE",
"1908 222 OFFCURVE",
"1908 550 CURVE SMOOTH",
"1908 878 OFFCURVE",
"1636 1150 OFFCURVE",
"1308 1150 CURVE SMOOTH",
"980 1150 OFFCURVE",
"708 877 OFFCURVE",
"708 550 CURVE",
"758 550 LINE",
"758 855 OFFCURVE",
"1003 1100 OFFCURVE",
"1308 1100 CURVE SMOOTH",
"1613 1100 OFFCURVE",
"1858 855 OFFCURVE",
"1858 550 CURVE SMOOTH",
"1858 245 OFFCURVE",
"1613 0 OFFCURVE",
"1308 0 CURVE",
"1308 -50 LINE"
);
}
);
width = 2016;
},
{
background = {
paths = (
{
closed = 1;
nodes = (
"1018 298 OFFCURVE",
"844 19 OFFCURVE",
"586 -130 CURVE",
"713 -204 OFFCURVE",
"861 -246 OFFCURVE",
"1018 -246 CURVE",
"1175 -246 OFFCURVE",
"1323 -204 OFFCURVE",
"1450 -130 CURVE",
"1192 19 OFFCURVE",
"1018 298 OFFCURVE",
"1018 618 CURVE"
);
},
{
closed = 1;
nodes = (
"1018 938 OFFCURVE",
"1192 1217 OFFCURVE",
"1450 1366 CURVE",
"1323 1440 OFFCURVE",
"1175 1482 OFFCURVE",
"1018 1482 CURVE",
"861 1482 OFFCURVE",
"713 1440 OFFCURVE",
"586 1366 CURVE",
"844 1217 OFFCURVE",
"1018 938 OFFCURVE",
"1018 618 CURVE"
);
},
{
closed = 1;
nodes = (
"1338 618 OFFCURVE",
"1617 444 OFFCURVE",
"1766 186 CURVE",
"1840 313 OFFCURVE",
"1882 461 OFFCURVE",
"1882 618 CURVE",
"1882 775 OFFCURVE",
"1840 923 OFFCURVE",
"1766 1050 CURVE",
"1617 792 OFFCURVE",
"1338 618 OFFCURVE",
"1018 618 CURVE"
);
},
{
closed = 1;
nodes = (
"698 618 OFFCURVE",
"419 792 OFFCURVE",
"270 1050 CURVE",
"196 923 OFFCURVE",
"154 775 OFFCURVE",
"154 618 CURVE",
"154 461 OFFCURVE",
"196 313 OFFCURVE",
"270 186 CURVE",
"419 444 OFFCURVE",
"698 618 OFFCURVE",
"1018 618 CURVE"
);
}
);
};
layerId = m002;
paths = (
{
closed = 1;
nodes = (
"171 1350 OFFCURVE",
"-192 987 OFFCURVE",
"-192 550 CURVE SMOOTH",
"-192 113 OFFCURVE",
"171 -250 OFFCURVE",
"608 -250 CURVE SMOOTH",
"1045 -250 OFFCURVE",
"1408 114 OFFCURVE",
"1408 550 CURVE",
"908 550 LINE",
"908 384 OFFCURVE",
"774 250 OFFCURVE",
"608 250 CURVE SMOOTH",
"442 250 OFFCURVE",
"308 384 OFFCURVE",
"308 550 CURVE SMOOTH",
"308 716 OFFCURVE",
"442 850 OFFCURVE",
"608 850 CURVE",
"608 1350 LINE"
);
},
{
closed = 1;
nodes = (
"1845 -252 OFFCURVE",
"2208 111 OFFCURVE",
"2208 548 CURVE SMOOTH",
"2208 985 OFFCURVE",
"1845 1348 OFFCURVE",
"1408 1348 CURVE SMOOTH",
"971 1348 OFFCURVE",
"608 984 OFFCURVE",
"608 548 CURVE",
"1108 548 LINE",
"1108 714 OFFCURVE",
"1242 848 OFFCURVE",
"1408 848 CURVE SMOOTH",
"1574 848 OFFCURVE",
"1708 714 OFFCURVE",
"1708 548 CURVE SMOOTH",
"1708 382 OFFCURVE",
"1574 248 OFFCURVE",
"1408 248 CURVE",
"1408 -252 LINE"
);
}
);
width = 2016;
}
);
unicode = 0043;
},
{
glyphname = G;
lastChange = "2020-11-27 20:47:48 +0000";
layers = (
{
background = {
paths = (
{
closed = 1;
nodes = (
"1379 900 LINE",
"1471 808 LINE",
"1125 462 LINE",
"1391 198 LINE",
"1391 74 LINE",
"1076 -239 LINE",
"319 518 LINE",
"521 721 LINE",
"658 586 LINE",
"583 512 LINE",
"786 309 LINE"
);
},
{
closed = 1;
nodes = (
"768 586 LINE",
"417 937 LINE",
"534 1054 LINE",
"886 703 LINE",
"941 758 LINE",
"590 1109 LINE",
"706 1227 LINE",
"1058 876 LINE",
"1113 931 LINE",
"762 1283 LINE",
"879 1399 LINE",
"1316 961 LINE",
"780 425 LINE",
"694 512 LINE"
);
},
{
closed = 1;
nodes = (
"1872 -334 LINE",
"1872 -68 LINE",
"144 1394 LINE",
"144 1128 LINE"
);
},
{
closed = 1;
nodes = (
"144 609 LINE",
"1274 -334 LINE",
"1274 -91 LINE",
"144 853 LINE"
);
},
{
closed = 1;
nodes = (
"1872 196 LINE",
"1872 451 LINE",
"742 1394 LINE",
"742 1139 LINE"
);
}
);
};
layerId = "D4EE34A4-BBD8-48A5-B1C1-325A5896F021";
width = 2016;
},
{
background = {
paths = (
{
closed = 1;
nodes = (
"1379 900 LINE",
"1471 808 LINE",
"1125 462 LINE",
"1391 198 LINE",
"1391 74 LINE",
"1076 -239 LINE",
"319 518 LINE",
"521 721 LINE",
"658 586 LINE",
"583 512 LINE",
"786 309 LINE"
);
},
{
closed = 1;
nodes = (
"768 586 LINE",
"417 937 LINE",
"534 1054 LINE",
"886 703 LINE",
"941 758 LINE",
"590 1109 LINE",
"706 1227 LINE",
"1058 876 LINE",
"1113 931 LINE",
"762 1283 LINE",
"879 1399 LINE",
"1316 961 LINE",
"780 425 LINE",
"694 512 LINE"
);
},
{
closed = 1;
nodes = (
"1872 -334 LINE",
"1872 -68 LINE",
"144 1394 LINE",
"144 1128 LINE"
);
},
{
closed = 1;
nodes = (
"144 609 LINE",
"1274 -334 LINE",
"1274 -91 LINE",
"144 853 LINE"
);
},
{
closed = 1;
nodes = (
"1872 196 LINE",
"1872 451 LINE",
"742 1394 LINE",
"742 1139 LINE"
);
}
);
};
layerId = m002;
width = 2016;
}
);
unicode = 0047;
},
{
glyphname = H;
lastChange = "2021-03-26 17:25:43 +0000";
layers = (
{
layerId = "D4EE34A4-BBD8-48A5-B1C1-325A5896F021";
paths = (
{
closed = 1;
nodes = (
"872 106 LINE SMOOTH",
"780 -7 OFFCURVE",
"767 -62 OFFCURVE",
"767 -121 CURVE SMOOTH",
"767 -287 OFFCURVE",
"875 -350 OFFCURVE",
"1008 -350 CURVE SMOOTH",
"1141 -350 OFFCURVE",
"1249 -288 OFFCURVE",
"1249 -121 CURVE SMOOTH",
"1249 -63 OFFCURVE",
"1236 -7 OFFCURVE",
"1144 106 CURVE SMOOTH",
"1068 200 LINE",
"1051 195 OFFCURVE",
"1030 192 OFFCURVE",
"1008 192 CURVE SMOOTH",
"987 192 OFFCURVE",
"965 195 OFFCURVE",
"948 200 CURVE"
);
},
{
closed = 1;
nodes = (
"1172 250 OFFCURVE",
"1308 387 OFFCURVE",
"1308 550 CURVE SMOOTH",
"1308 714 OFFCURVE",
"1172 850 OFFCURVE",
"1008 850 CURVE SMOOTH",
"844 850 OFFCURVE",
"708 714 OFFCURVE",
"708 550 CURVE SMOOTH",
"708 386 OFFCURVE",
"845 250 OFFCURVE",
"1008 250 CURVE SMOOTH"
);
},
{
closed = 1;
nodes = (
"1005 545 OFFCURVE",
"1003 547 OFFCURVE",
"1003 550 CURVE SMOOTH",
"1003 553 OFFCURVE",
"1005 555 OFFCURVE",
"1008 555 CURVE SMOOTH",
"1011 555 OFFCURVE",
"1013 553 OFFCURVE",
"1013 550 CURVE SMOOTH",
"1013 547 OFFCURVE",
"1011 545 OFFCURVE",
"1008 545 CURVE SMOOTH"
);
},
{
closed = 1;
nodes = (
"965 905 OFFCURVE",
"987 908 OFFCURVE",
"1008 908 CURVE SMOOTH",
"1030 908 OFFCURVE",
"1051 905 OFFCURVE",
"1068 900 CURVE",
"1144 994 LINE SMOOTH",
"1235 1108 OFFCURVE",
"1249 1163 OFFCURVE",
"1249 1221 CURVE SMOOTH",
"1249 1388 OFFCURVE",
"1141 1450 OFFCURVE",
"1008 1450 CURVE SMOOTH",
"875 1450 OFFCURVE",
"767 1387 OFFCURVE",
"767 1221 CURVE SMOOTH",
"767 1162 OFFCURVE",
"781 1108 OFFCURVE",
"872 994 CURVE SMOOTH",
"948 900 LINE"
);
},
{
closed = 1;
nodes = (
"564 686 LINE SMOOTH",
"451 778 OFFCURVE",
"396 791 OFFCURVE",
"337 791 CURVE SMOOTH",
"171 791 OFFCURVE",
"108 683 OFFCURVE",
"108 550 CURVE SMOOTH",
"108 417 OFFCURVE",
"170 309 OFFCURVE",
"337 309 CURVE SMOOTH",
"395 309 OFFCURVE",
"451 322 OFFCURVE",
"564 414 CURVE SMOOTH",
"658 490 LINE",
"653 507 OFFCURVE",
"650 528 OFFCURVE",
"650 550 CURVE SMOOTH",
"650 571 OFFCURVE",
"653 593 OFFCURVE",
"658 610 CURVE"
);
},
{
closed = 1;
nodes = (
"1363 593 OFFCURVE",
"1366 571 OFFCURVE",
"1366 550 CURVE SMOOTH",
"1366 528 OFFCURVE",
"1363 507 OFFCURVE",
"1358 490 CURVE",
"1452 414 LINE SMOOTH",
"1566 323 OFFCURVE",
"1621 309 OFFCURVE",
"1679 309 CURVE SMOOTH",
"1846 309 OFFCURVE",
"1908 417 OFFCURVE",
"1908 550 CURVE SMOOTH",
"1908 683 OFFCURVE",
"1845 791 OFFCURVE",
"1679 791 CURVE SMOOTH",
"1620 791 OFFCURVE",
"1566 777 OFFCURVE",
"1452 686 CURVE SMOOTH",
"1358 610 LINE"
);
},
{
closed = 1;
nodes = (
"598 332 LINE SMOOTH",
"453 317 OFFCURVE",
"405 288 OFFCURVE",
"363 246 CURVE SMOOTH",
"246 129 OFFCURVE",
"278 8 OFFCURVE",
"372 -86 CURVE SMOOTH",
"466 -180 OFFCURVE",
"586 -213 OFFCURVE",
"704 -95 CURVE SMOOTH",
"745 -54 OFFCURVE",
"775 -5 OFFCURVE",
"790 140 CURVE SMOOTH",
"803 260 LINE",
"787 269 OFFCURVE",
"770 281 OFFCURVE",
"755 297 CURVE SMOOTH",
"740 312 OFFCURVE",
"727 329 OFFCURVE",
"718 345 CURVE"
);
},
{
closed = 1;
nodes = (
"1229 831 OFFCURVE",
"1246 818 OFFCURVE",
"1261 803 CURVE SMOOTH",
"1277 788 OFFCURVE",
"1289 771 OFFCURVE",
"1298 755 CURVE",
"1418 768 LINE SMOOTH",
"1563 784 OFFCURVE",
"1612 813 OFFCURVE",
"1653 854 CURVE SMOOTH",
"1771 972 OFFCURVE",
"1738 1092 OFFCURVE",
"1644 1186 CURVE SMOOTH",
"1550 1280 OFFCURVE",
"1429 1312 OFFCURVE",
"1312 1195 CURVE SMOOTH",
"1270 1153 OFFCURVE",
"1242 1105 OFFCURVE",
"1226 960 CURVE SMOOTH",
"1213 840 LINE"
);
},
{
closed = 1;
nodes = (
"790 960 LINE SMOOTH",
"775 1105 OFFCURVE",
"746 1153 OFFCURVE",
"704 1195 CURVE SMOOTH",
"587 1312 OFFCURVE",
"466 1280 OFFCURVE",
"372 1186 CURVE SMOOTH",
"278 1092 OFFCURVE",
"245 972 OFFCURVE",
"363 854 CURVE SMOOTH",
"404 813 OFFCURVE",
"453 783 OFFCURVE",
"598 768 CURVE SMOOTH",
"718 755 LINE",
"727 771 OFFCURVE",
"739 788 OFFCURVE",
"755 803 CURVE SMOOTH",
"770 818 OFFCURVE",
"787 831 OFFCURVE",
"803 840 CURVE"
);
},
{
closed = 1;
nodes = (
"1289 329 OFFCURVE",
"1276 312 OFFCURVE",
"1261 297 CURVE SMOOTH",
"1246 281 OFFCURVE",
"1229 269 OFFCURVE",
"1213 260 CURVE",
"1226 140 LINE SMOOTH",
"1242 -5 OFFCURVE",
"1271 -54 OFFCURVE",
"1312 -95 CURVE SMOOTH",
"1430 -213 OFFCURVE",
"1550 -180 OFFCURVE",
"1644 -86 CURVE SMOOTH",
"1738 8 OFFCURVE",
"1770 129 OFFCURVE",
"1653 246 CURVE SMOOTH",
"1611 288 OFFCURVE",
"1563 316 OFFCURVE",
"1418 332 CURVE SMOOTH",
"1298 345 LINE"
);
}
);
width = 2016;
},
{
layerId = m002;
paths = (
{
closed = 1;
nodes = (
"872 106 LINE SMOOTH",
"780 -7 OFFCURVE",
"767 -62 OFFCURVE",
"767 -121 CURVE SMOOTH",
"767 -287 OFFCURVE",
"875 -350 OFFCURVE",
"1008 -350 CURVE SMOOTH",
"1141 -350 OFFCURVE",
"1249 -288 OFFCURVE",
"1249 -121 CURVE SMOOTH",
"1249 -63 OFFCURVE",
"1236 -7 OFFCURVE",
"1144 106 CURVE SMOOTH",
"1068 200 LINE",
"1051 195 OFFCURVE",
"1030 192 OFFCURVE",
"1008 192 CURVE SMOOTH",
"987 192 OFFCURVE",
"965 195 OFFCURVE",
"948 200 CURVE"
);
},
{
closed = 1;
nodes = (
"1172 250 OFFCURVE",
"1308 387 OFFCURVE",
"1308 550 CURVE SMOOTH",
"1308 714 OFFCURVE",
"1172 850 OFFCURVE",
"1008 850 CURVE SMOOTH",
"844 850 OFFCURVE",
"708 714 OFFCURVE",
"708 550 CURVE SMOOTH",
"708 386 OFFCURVE",
"845 250 OFFCURVE",
"1008 250 CURVE SMOOTH"
);
},
{
closed = 1;
nodes = (
"1005 545 OFFCURVE",
"1003 547 OFFCURVE",
"1003 550 CURVE SMOOTH",
"1003 553 OFFCURVE",
"1005 555 OFFCURVE",
"1008 555 CURVE SMOOTH",
"1011 555 OFFCURVE",
"1013 553 OFFCURVE",
"1013 550 CURVE SMOOTH",
"1013 547 OFFCURVE",
"1011 545 OFFCURVE",
"1008 545 CURVE SMOOTH"
);
},
{
closed = 1;
nodes = (
"965 905 OFFCURVE",
"987 908 OFFCURVE",
"1008 908 CURVE SMOOTH",
"1030 908 OFFCURVE",
"1051 905 OFFCURVE",
"1068 900 CURVE",
"1144 994 LINE SMOOTH",
"1235 1108 OFFCURVE",
"1249 1163 OFFCURVE",
"1249 1221 CURVE SMOOTH",
"1249 1388 OFFCURVE",
"1141 1450 OFFCURVE",
"1008 1450 CURVE SMOOTH",
"875 1450 OFFCURVE",
"767 1387 OFFCURVE",
"767 1221 CURVE SMOOTH",
"767 1162 OFFCURVE",
"781 1108 OFFCURVE",
"872 994 CURVE SMOOTH",
"948 900 LINE"
);
},
{
closed = 1;
nodes = (
"564 686 LINE SMOOTH",
"451 778 OFFCURVE",
"396 791 OFFCURVE",
"337 791 CURVE SMOOTH",
"171 791 OFFCURVE",
"108 683 OFFCURVE",
"108 550 CURVE SMOOTH",
"108 417 OFFCURVE",
"170 309 OFFCURVE",
"337 309 CURVE SMOOTH",
"395 309 OFFCURVE",
"451 322 OFFCURVE",
"564 414 CURVE SMOOTH",
"658 490 LINE",
"653 507 OFFCURVE",
"650 528 OFFCURVE",
"650 550 CURVE SMOOTH",
"650 571 OFFCURVE",
"653 593 OFFCURVE",
"658 610 CURVE"
);
},
{
closed = 1;
nodes = (
"1363 593 OFFCURVE",
"1366 571 OFFCURVE",
"1366 550 CURVE SMOOTH",
"1366 528 OFFCURVE",
"1363 507 OFFCURVE",
"1358 490 CURVE",
"1452 414 LINE SMOOTH",
"1566 323 OFFCURVE",
"1621 309 OFFCURVE",
"1679 309 CURVE SMOOTH",
"1846 309 OFFCURVE",
"1908 417 OFFCURVE",
"1908 550 CURVE SMOOTH",
"1908 683 OFFCURVE",
"1845 791 OFFCURVE",
"1679 791 CURVE SMOOTH",
"1620 791 OFFCURVE",
"1566 777 OFFCURVE",
"1452 686 CURVE SMOOTH",
"1358 610 LINE"
);
},
{
closed = 1;
nodes = (
"598 332 LINE SMOOTH",
"453 317 OFFCURVE",
"405 288 OFFCURVE",
"363 246 CURVE SMOOTH",
"246 129 OFFCURVE",
"278 8 OFFCURVE",
"372 -86 CURVE SMOOTH",
"466 -180 OFFCURVE",
"586 -213 OFFCURVE",
"704 -95 CURVE SMOOTH",
"745 -54 OFFCURVE",
"775 -5 OFFCURVE",
"790 140 CURVE SMOOTH",
"803 260 LINE",
"787 269 OFFCURVE",
"770 281 OFFCURVE",
"755 297 CURVE SMOOTH",
"740 312 OFFCURVE",
"727 329 OFFCURVE",
"718 345 CURVE"
);
},
{
closed = 1;
nodes = (
"1229 831 OFFCURVE",
"1246 818 OFFCURVE",
"1261 803 CURVE SMOOTH",
"1277 788 OFFCURVE",
"1289 771 OFFCURVE",
"1298 755 CURVE",
"1418 768 LINE SMOOTH",
"1563 784 OFFCURVE",
"1612 813 OFFCURVE",
"1653 854 CURVE SMOOTH",
"1771 972 OFFCURVE",
"1738 1092 OFFCURVE",
"1644 1186 CURVE SMOOTH",
"1550 1280 OFFCURVE",
"1429 1312 OFFCURVE",
"1312 1195 CURVE SMOOTH",
"1270 1153 OFFCURVE",
"1242 1105 OFFCURVE",
"1226 960 CURVE SMOOTH",
"1213 840 LINE"
);
},
{
closed = 1;
nodes = (
"790 960 LINE SMOOTH",
"775 1105 OFFCURVE",
"746 1153 OFFCURVE",
"704 1195 CURVE SMOOTH",
"587 1312 OFFCURVE",
"466 1280 OFFCURVE",
"372 1186 CURVE SMOOTH",
"278 1092 OFFCURVE",
"245 972 OFFCURVE",
"363 854 CURVE SMOOTH",
"404 813 OFFCURVE",
"453 783 OFFCURVE",
"598 768 CURVE SMOOTH",
"718 755 LINE",
"727 771 OFFCURVE",
"739 788 OFFCURVE",
"755 803 CURVE SMOOTH",
"770 818 OFFCURVE",
"787 831 OFFCURVE",
"803 840 CURVE"
);
},
{
closed = 1;
nodes = (
"1289 329 OFFCURVE",
"1276 312 OFFCURVE",
"1261 297 CURVE SMOOTH",
"1246 281 OFFCURVE",
"1229 269 OFFCURVE",
"1213 260 CURVE",
"1226 140 LINE SMOOTH",
"1242 -5 OFFCURVE",
"1271 -54 OFFCURVE",
"1312 -95 CURVE SMOOTH",
"1430 -213 OFFCURVE",
"1550 -180 OFFCURVE",
"1644 -86 CURVE SMOOTH",
"1738 8 OFFCURVE",
"1770 129 OFFCURVE",
"1653 246 CURVE SMOOTH",
"1611 288 OFFCURVE",
"1563 316 OFFCURVE",
"1418 332 CURVE SMOOTH",
"1298 345 LINE"
);
}
);
width = 2016;
}
);
unicode = 0048;
},
{
glyphname = L;
lastChange = "2020-12-08 12:59:24 +0000";
layers = (
{
background = {
paths = (
{
closed = 1;
nodes = (
"1063 450 OFFCURVE",
"1108 405 OFFCURVE",
"1108 350 CURVE SMOOTH",
"1108 295 OFFCURVE",
"1063 250 OFFCURVE",
"1008 250 CURVE SMOOTH",
"953 250 OFFCURVE",
"908 295 OFFCURVE",
"908 350 CURVE SMOOTH",
"908 405 OFFCURVE",
"953 450 OFFCURVE",
"1008 450 CURVE SMOOTH"
);
},
{
closed = 1;
nodes = (
"984 340 LINE",
"1032 340 LINE",
"1032 50 LINE",
"984 50 LINE"
);
}
);
};
layerId = "D4EE34A4-BBD8-48A5-B1C1-325A5896F021";
paths = (
{
closed = 1;
nodes = (
"658 1179 OFFCURVE",
"814 1335 OFFCURVE",
"1008 1335 CURVE SMOOTH",
"1202 1335 OFFCURVE",
"1358 1179 OFFCURVE",
"1358 985 CURVE SMOOTH",
"1358 810 LINE",
"1408 810 LINE",
"1408 985 LINE SMOOTH",
"1408 1203 OFFCURVE",
"1226 1385 OFFCURVE",
"1008 1385 CURVE SMOOTH",
"790 1385 OFFCURVE",
"608 1203 OFFCURVE",
"608 985 CURVE SMOOTH",
"608 810 LINE",
"658 810 LINE",
"658 985 LINE SMOOTH"
);
},
{
closed = 1;
nodes = (
"1608 -85 LINE",
"1608 825 LINE",
"408 825 LINE",
"408 -85 LINE"
);
},
{
closed = 1;
nodes = (
"1063 550 OFFCURVE",
"1108 505 OFFCURVE",
"1108 450 CURVE SMOOTH",
"1108 403 OFFCURVE",
"1076 364 OFFCURVE",
"1032 353 CURVE",
"1032 150 LINE",
"984 150 LINE",
"984 353 LINE",
"940 364 OFFCURVE",
"908 403 OFFCURVE",
"908 450 CURVE SMOOTH",
"908 505 OFFCURVE",
"953 550 OFFCURVE",
"1008 550 CURVE SMOOTH"
);
}
);
width = 2016;
},
{
background = {
paths = (
{
closed = 1;
nodes = (
"885 500 OFFCURVE",
"783 399 OFFCURVE",
"783 275 CURVE SMOOTH",
"783 152 OFFCURVE",
"885 50 OFFCURVE",
"1008 50 CURVE SMOOTH",
"1132 50 OFFCURVE",
"1233 152 OFFCURVE",
"1233 275 CURVE SMOOTH",
"1233 399 OFFCURVE",
"1132 500 OFFCURVE",
"1008 500 CURVE SMOOTH"
);
},
{
closed = 1;
nodes = (
"1083 -200 LINE",
"1083 200 LINE",
"933 200 LINE",
"933 -200 LINE"
);
}
);
};
layerId = m002;
paths = (
{
closed = 1;
nodes = (
"858 1069 OFFCURVE",
"924 1135 OFFCURVE",
"1008 1135 CURVE SMOOTH",
"1092 1135 OFFCURVE",
"1158 1069 OFFCURVE",
"1158 985 CURVE SMOOTH",
"1158 865 LINE",
"1558 865 LINE",
"1558 985 LINE SMOOTH",
"1558 1285 OFFCURVE",
"1308 1535 OFFCURVE",
"1008 1535 CURVE SMOOTH",
"709 1535 OFFCURVE",
"458 1285 OFFCURVE",
"458 985 CURVE SMOOTH",
"458 865 LINE",
"858 865 LINE",
"858 985 LINE SMOOTH"
);
},
{
closed = 1;
nodes = (
"1808 -205 LINE",
"1808 905 LINE",
"208 905 LINE",
"208 -205 LINE"
);
},
{
closed = 1;
nodes = (
"1132 700 OFFCURVE",
"1233 599 OFFCURVE",
"1233 475 CURVE SMOOTH",
"1233 378 OFFCURVE",
"1170 294 OFFCURVE",
"1083 263 CURVE",
"1083 0 LINE",
"933 0 LINE",
"933 263 LINE",
"846 294 OFFCURVE",
"783 378 OFFCURVE",
"783 475 CURVE SMOOTH",
"783 599 OFFCURVE",
"885 700 OFFCURVE",
"1008 700 CURVE SMOOTH"
);
}
);
width = 2016;
}
);
unicode = 004C;
},
{
glyphname = M;
lastChange = "2020-11-27 20:48:16 +0000";
layers = (
{
background = {
paths = (
{
closed = 1;
nodes = (
"8 546 LINE",
"97 377 LINE",
"546 -54 LINE",
"87 908 LINE"
);
},
{
closed = 1;
nodes = (
"1008 1504 LINE",
"991 1488 LINE",
"856 92 LINE",
"487 1005 LINE",
"418 939 LINE",
"661 -163 LINE",
"1008 -496 LINE",
"1355 -163 LINE",
"1598 939 LINE",
"1529 1005 LINE",
"1160 92 LINE",
"1025 1488 LINE"
);
},
{
closed = 1;
nodes = (
"1470 -54 LINE",
"1919 377 LINE",
"2008 546 LINE",
"1928 908 LINE"
);
},
{
closed = 1;
nodes = (
"1330 -332 LINE",
"2007 -233 LINE",
"2007 -449 LINE",
"1113 -496 LINE"
);
},
{
closed = 1;
nodes = (
"14 -449 LINE",
"14 -233 LINE",
"691 -332 LINE",
"908 -496 LINE"
);
}
);
};
layerId = "D4EE34A4-BBD8-48A5-B1C1-325A5896F021";
width = 2016;
},
{
background = {
paths = (
{
closed = 1;
nodes = (
"8 546 LINE",
"97 377 LINE",
"546 -54 LINE",
"87 908 LINE"
);
},
{
closed = 1;
nodes = (
"1008 1504 LINE",
"991 1488 LINE",
"856 92 LINE",
"487 1005 LINE",
"418 939 LINE",
"661 -163 LINE",
"1008 -496 LINE",
"1355 -163 LINE",
"1598 939 LINE",
"1529 1005 LINE",
"1160 92 LINE",
"1025 1488 LINE"
);
},
{
closed = 1;
nodes = (
"1470 -54 LINE",
"1919 377 LINE",
"2008 546 LINE",
"1928 908 LINE"
);
},
{
closed = 1;
nodes = (
"1330 -332 LINE",
"2007 -233 LINE",
"2007 -449 LINE",
"1113 -496 LINE"
);
},
{
closed = 1;
nodes = (
"14 -449 LINE",
"14 -233 LINE",
"691 -332 LINE",
"908 -496 LINE"
);
}
);
};
layerId = m002;
width = 2016;
}
);
unicode = 004D;
},
{
glyphname = R;
lastChange = "2020-11-27 20:43:48 +0000";
layers = (
{
background = {
paths = (
{
closed = 1;
nodes = (
"180 2204 LINE",
"556 2076 LINE",
"479 1686 LINE",
"690 1630 LINE",
"804 2060 LINE",
"659 2136 LINE",
"667 2299 LINE",
"236 2415 LINE"
);
},
{
closed = 1;
nodes = (
"884 3198 LINE",
"756 2822 LINE",
"366 2899 LINE",
"310 2688 LINE",
"740 2574 LINE",
"816 2719 LINE",
"979 2711 LINE",
"1095 3142 LINE"
);
},
{
closed = 1;
nodes = (
"1254 2638 LINE",
"1399 2562 LINE",
"1391 2399 LINE",
"1822 2283 LINE",
"1878 2494 LINE",
"1502 2622 LINE",
"1579 3012 LINE",
"1368 3068 LINE"
);
},
{
closed = 1;
nodes = (
"1242 1979 LINE",
"1079 1987 LINE",
"963 1556 LINE",
"1174 1500 LINE",
"1302 1876 LINE",
"1692 1799 LINE",
"1748 2010 LINE",
"1318 2124 LINE"
);
},
{
closed = 1;
nodes = (
"-71 382 LINE",
"404 220 LINE",
"308 -272 LINE",
"573 -344 LINE",
"717 200 LINE",
"534 296 LINE",
"544 502 LINE",
"0 648 LINE"
);
},
{
closed = 1;
nodes = (
"818 1638 LINE",
"656 1162 LINE",
"163 1260 LINE",
"92 993 LINE",
"635 849 LINE",
"732 1033 LINE",
"938 1023 LINE",
"1084 1567 LINE"
);
},
{
closed = 1;
nodes = (
"1285 930 LINE",
"1469 835 LINE",
"1459 628 LINE",
"2003 482 LINE",
"2074 749 LINE",
"1598 909 LINE",
"1695 1403 LINE",
"1428 1475 LINE"
);
},
{
closed = 1;
nodes = (
"1271 98 LINE",
"1064 108 LINE",
"918 -436 LINE",
"1185 -507 LINE",
"1345 -32 LINE",
"1839 -128 LINE",
"1911 137 LINE",
"1365 281 LINE"
);
},
{
closed = 1;
nodes = (
"1008 1562 LINE",
"0 554 LINE",
"1008 -454 LINE",
"2016 554 LINE"
);
},
{
closed = 1;
nodes = (
"73 554 LINE",
"1006 1487 LINE",
"1939 554 LINE",
"1006 -379 LINE"
);
}
);
};
layerId = "D4EE34A4-BBD8-48A5-B1C1-325A5896F021";
paths = (
{
closed = 1;
nodes = (
"619 780 LINE",
"619 985 LINE",
"1619 985 LINE",
"1619 1184 LINE",
"619 1184 LINE",
"619 1500 LINE",
"284 1260 LINE",
"284 780 LINE"
);
},
{
closed = 1;
nodes = (
"1366 -120 OFFCURVE",
"1227 -35 OFFCURVE",
"1227 104 CURVE SMOOTH",
"1227 354 OFFCURVE",
"1635 428 OFFCURVE",
"1908 501 CURVE",
"1908 661 LINE",
"728 661 LINE",
"728 540 LINE",
"108 540 LINE",
"108 428 LINE",
"866 136 LINE",
"866 75 LINE SMOOTH",
"866 -35 OFFCURVE",
"802 -104 OFFCURVE",
"592 -124 CURVE",
"592 -300 LINE",
"1499 -300 LINE",
"1499 -139 LINE"
);
}
);
width = 2016;
},
{
background = {
paths = (
{
closed = 1;
nodes = (
"180 2204 LINE",
"556 2076 LINE",
"479 1686 LINE",
"690 1630 LINE",
"804 2060 LINE",
"659 2136 LINE",
"667 2299 LINE",
"236 2415 LINE"
);
},
{
closed = 1;
nodes = (
"884 3198 LINE",
"756 2822 LINE",
"366 2899 LINE",
"310 2688 LINE",
"740 2574 LINE",
"816 2719 LINE",
"979 2711 LINE",
"1095 3142 LINE"
);
},
{
closed = 1;
nodes = (
"1254 2638 LINE",
"1399 2562 LINE",
"1391 2399 LINE",
"1822 2283 LINE",
"1878 2494 LINE",
"1502 2622 LINE",
"1579 3012 LINE",
"1368 3068 LINE"
);
},
{
closed = 1;
nodes = (
"1242 1979 LINE",
"1079 1987 LINE",
"963 1556 LINE",
"1174 1500 LINE",
"1302 1876 LINE",
"1692 1799 LINE",
"1748 2010 LINE",
"1318 2124 LINE"
);
},
{
closed = 1;
nodes = (
"-71 382 LINE",
"404 220 LINE",
"308 -272 LINE",
"573 -344 LINE",
"717 200 LINE",
"534 296 LINE",
"544 502 LINE",
"0 648 LINE"
);
},
{
closed = 1;
nodes = (
"818 1638 LINE",
"656 1162 LINE",
"163 1260 LINE",
"92 993 LINE",
"635 849 LINE",
"732 1033 LINE",
"938 1023 LINE",
"1084 1567 LINE"
);
},
{
closed = 1;
nodes = (
"1285 930 LINE",
"1469 835 LINE",
"1459 628 LINE",
"2003 482 LINE",
"2074 749 LINE",
"1598 909 LINE",
"1695 1403 LINE",
"1428 1475 LINE"
);
},
{
closed = 1;
nodes = (
"1271 98 LINE",
"1064 108 LINE",
"918 -436 LINE",
"1185 -507 LINE",
"1345 -32 LINE",
"1839 -128 LINE",
"1911 137 LINE",
"1365 281 LINE"
);
},
{
closed = 1;
nodes = (
"1008 1562 LINE",
"0 554 LINE",
"1008 -454 LINE",
"2016 554 LINE"
);
},
{
closed = 1;
nodes = (
"73 554 LINE",
"1006 1487 LINE",
"1939 554 LINE",
"1006 -379 LINE"
);
}
);
};
layerId = m002;
paths = (
{
closed = 1;
nodes = (
"619 780 LINE",
"619 985 LINE",
"1619 985 LINE",
"1619 1184 LINE",
"619 1184 LINE",
"619 1500 LINE",
"284 1260 LINE",
"284 780 LINE"
);
},
{
closed = 1;
nodes = (
"1366 -120 OFFCURVE",
"1227 -35 OFFCURVE",
"1227 104 CURVE SMOOTH",
"1227 354 OFFCURVE",
"1635 428 OFFCURVE",
"1908 501 CURVE",
"1908 661 LINE",
"728 661 LINE",
"728 540 LINE",
"108 540 LINE",
"108 428 LINE",
"866 136 LINE",
"866 75 LINE SMOOTH",
"866 -35 OFFCURVE",
"802 -104 OFFCURVE",
"592 -124 CURVE",
"592 -300 LINE",
"1499 -300 LINE",
"1499 -139 LINE"
);
}
);
width = 2016;
}
);
unicode = 0052;
},
{
glyphname = S;
lastChange = "2020-12-12 01:09:01 +0000";
layers = (
{
background = {
paths = (
{
closed = 1;
nodes = (
"650 1341 LINE",
"60 171 LINE",
"886 211 LINE",
"552 -586 LINE",
"2056 691 LINE",
"997 631 LINE",
"1427 1341 LINE"
);
}
);
};
layerId = "D4EE34A4-BBD8-48A5-B1C1-325A5896F021";
paths = (
{
closed = 1;
nodes = (
"833 475 LINE",
"983 -165 LINE",
"1033 -165 LINE",
"1183 475 LINE",
"1823 625 LINE",
"1823 675 LINE",
"1183 825 LINE",
"1033 1465 LINE",
"983 1465 LINE",
"833 825 LINE",
"193 675 LINE",
"193 625 LINE"
);
},
{
closed = 1;
nodes = (
"343 655 LINE",
"883 775 LINE",
"1003 1315 LINE",
"1013 1315 LINE",
"1133 775 LINE",
"1673 655 LINE",
"1673 645 LINE",
"1133 525 LINE",
"1013 -15 LINE",
"1003 -15 LINE",
"883 525 LINE",
"343 645 LINE"
);
},
{
closed = 1;
nodes = (
"378 20 LINE",
"388 -365 LINE",
"428 -365 LINE",
"438 20 LINE",
"823 30 LINE",
"823 70 LINE",
"438 80 LINE",
"428 465 LINE",
"388 465 LINE",
"378 80 LINE",
"-7 70 LINE",
"-7 30 LINE"
);
},
{
closed = 1;
nodes = (
"1578 1220 LINE",
"1588 835 LINE",
"1628 835 LINE",
"1638 1220 LINE",
"2023 1230 LINE",
"2023 1270 LINE",
"1638 1280 LINE",
"1628 1665 LINE",
"1588 1665 LINE",
"1578 1280 LINE",
"1193 1270 LINE",
"1193 1230 LINE"
);
}
);
width = 2016;
},
{
background = {
paths = (
{
closed = 1;
nodes = (
"650 1341 LINE",
"60 171 LINE",
"886 211 LINE",
"552 -586 LINE",
"2056 691 LINE",
"997 631 LINE",
"1427 1341 LINE"
);
},
{
closed = 1;
nodes = (
"171 1350 OFFCURVE",
"-192 987 OFFCURVE",
"-192 550 CURVE SMOOTH",
"-192 113 OFFCURVE",
"171 -250 OFFCURVE",
"608 -250 CURVE SMOOTH",
"1045 -250 OFFCURVE",
"1408 114 OFFCURVE",
"1408 550 CURVE",
"908 550 LINE",
"908 384 OFFCURVE",
"774 250 OFFCURVE",
"608 250 CURVE SMOOTH",
"442 250 OFFCURVE",
"308 384 OFFCURVE",
"308 550 CURVE SMOOTH",
"308 716 OFFCURVE",
"442 850 OFFCURVE",
"608 850 CURVE",
"608 1350 LINE"
);
},
{
closed = 1;
nodes = (
"1845 -252 OFFCURVE",
"2208 111 OFFCURVE",
"2208 548 CURVE SMOOTH",
"2208 985 OFFCURVE",
"1845 1348 OFFCURVE",
"1408 1348 CURVE SMOOTH",
"971 1348 OFFCURVE",
"608 984 OFFCURVE",
"608 548 CURVE",
"1108 548 LINE",
"1108 714 OFFCURVE",
"1242 848 OFFCURVE",
"1408 848 CURVE SMOOTH",
"1574 848 OFFCURVE",
"1708 714 OFFCURVE",
"1708 548 CURVE SMOOTH",
"1708 382 OFFCURVE",
"1574 248 OFFCURVE",
"1408 248 CURVE",
"1408 -252 LINE"
);
}
);
};
layerId = m002;
paths = (
{
closed = 1;
nodes = (
"693 335 LINE",
"898 -265 LINE",
"1118 -265 LINE",
"1323 335 LINE",
"1923 540 LINE",
"1923 760 LINE",
"1323 965 LINE",
"1118 1565 LINE",
"898 1565 LINE",
"693 965 LINE",
"93 760 LINE",
"93 540 LINE"
);
},
{
closed = 1;
nodes = (
"608 665 LINE",
"908 750 LINE",
"993 1050 LINE",
"1023 1050 LINE",
"1108 750 LINE",
"1408 665 LINE",
"1408 635 LINE",
"1108 550 LINE",
"1023 250 LINE",
"993 250 LINE",
"908 550 LINE",
"608 635 LINE"
);
},
{
closed = 1;
nodes = (
"288 -70 LINE",
"358 -365 LINE",
"458 -365 LINE",
"528 -70 LINE",
"723 0 LINE",
"723 100 LINE",
"528 170 LINE",
"458 365 LINE",
"358 365 LINE",
"288 170 LINE",
"-7 100 LINE",
"-7 0 LINE"
);
},
{
closed = 1;
nodes = (
"1488 1130 LINE",
"1558 935 LINE",
"1658 935 LINE",
"1728 1130 LINE",
"2023 1200 LINE",
"2023 1300 LINE",
"1728 1370 LINE",
"1658 1665 LINE",
"1558 1665 LINE",
"1488 1370 LINE",
"1293 1300 LINE",
"1293 1200 LINE"
);
}
);
width = 2016;
}
);
unicode = 0053;
},
{
glyphname = T;
lastChange = "2020-11-27 20:50:01 +0000";
layers = (
{
layerId = "D4EE34A4-BBD8-48A5-B1C1-325A5896F021";
width = 2016;
},
{
background = {
paths = (
{
closed = 1;
nodes = (
"1431 -243 OFFCURVE",
"1781 107 OFFCURVE",
"1781 530 CURVE SMOOTH",
"1781 953 OFFCURVE",
"1431 1303 OFFCURVE",
"1008 1303 CURVE SMOOTH",
"585 1303 OFFCURVE",
"235 953 OFFCURVE",
"235 530 CURVE SMOOTH",
"235 107 OFFCURVE",
"585 -243 OFFCURVE",
"1008 -243 CURVE SMOOTH"
);
},
{
closed = 1;
nodes = (
"1324 1101 OFFCURVE",
"1579 846 OFFCURVE",
"1579 530 CURVE SMOOTH",
"1579 214 OFFCURVE",
"1324 -41 OFFCURVE",
"1008 -41 CURVE SMOOTH",
"692 -41 OFFCURVE",
"437 214 OFFCURVE",
"437 530 CURVE SMOOTH",
"437 846 OFFCURVE",
"692 1101 OFFCURVE",
"1008 1101 CURVE SMOOTH"
);
},
{
closed = 1;
nodes = (
"2016 631 LINE",
"0 631 LINE",
"0 429 LINE",
"2016 429 LINE"
);
},
{
closed = 1;
nodes = (
"1109 1538 LINE",
"907 1538 LINE",
"907 -478 LINE",
"1109 -478 LINE"
);
}
);
};
layerId = m002;
width = 2016;
}
);
unicode = 0054;
},
{
glyphname = U;
lastChange = "2020-11-27 20:48:25 +0000";
layers = (
{
background = {
paths = (
{
closed = 0;
nodes = (
"0 0 LINE",
"486 608 LINE SMOOTH",
"616 770 OFFCURVE",
"556 998 OFFCURVE",
"300 998 CURVE SMOOTH",
"44 998 OFFCURVE",
"-16 770 OFFCURVE",
"114 608 CURVE SMOOTH",
"600 0 LINE"
);
}
);
};
layerId = "D4EE34A4-BBD8-48A5-B1C1-325A5896F021";
width = 1200;
},
{
background = {
paths = (
{
closed = 0;
nodes = (
"0 0 LINE",
"486 608 LINE SMOOTH",
"616 770 OFFCURVE",
"556 998 OFFCURVE",
"300 998 CURVE SMOOTH",
"44 998 OFFCURVE",
"-16 770 OFFCURVE",
"114 608 CURVE SMOOTH",
"600 0 LINE"
);
}
);
};
layerId = m002;
width = 1200;
}
);
unicode = 0055;
},
{
glyphname = V;
lastChange = "2020-11-27 20:45:20 +0000";
layers = (
{
background = {
paths = (
{
closed = 1;
nodes = (
"1008 1180 LINE",
"1512 308 LINE",
"2016 1180 LINE"
);
},
{
closed = 1;
nodes = (
"0 1180 LINE",
"504 308 LINE",
"1008 1180 LINE"
);
},
{
closed = 1;
nodes = (
"504 308 LINE",
"1008 -565 LINE",
"1512 308 LINE"
);
}
);
};
layerId = "D4EE34A4-BBD8-48A5-B1C1-325A5896F021";
width = 2016;
},
{
background = {
paths = (
{
closed = 1;
nodes = (
"1008 1180 LINE",
"1512 308 LINE",
"2016 1180 LINE"
);
},
{
closed = 1;
nodes = (
"0 1180 LINE",
"504 308 LINE",
"1008 1180 LINE"
);
},
{
closed = 1;
nodes = (
"504 308 LINE",
"1008 -565 LINE",
"1512 308 LINE"
);
}
);
};
layerId = m002;
width = 2016;
}
);
unicode = 0056;
},
{
glyphname = W;
lastChange = "2020-11-27 20:45:18 +0000";
layers = (
{
background = {
paths = (
{
closed = 1;
nodes = (
"426 657 LINE",
"396 677 LINE",
"426 697 LINE",
"396 717 LINE",
"426 737 LINE",
"396 757 LINE",
"426 777 LINE",
"396 797 LINE",
"426 817 LINE",
"413 913 LINE",
"298 1013 LINE",
"268 1013 LINE",
"275 276 LINE",
"424 276 LINE"
);
},
{
closed = 1;
nodes = (
"325 870 LINE",
"325 296 LINE",
"308 296 LINE",
"308 873 LINE"
);
},
{
closed = 1;
nodes = (
"223 297 LINE",
"233 235 LINE",
"296 242 LINE",
"296 81 LINE",
"306 -109 LINE",
"441 -78 LINE",
"429 -45 OFFCURVE",
"414 -11 OFFCURVE",
"412 23 CURVE SMOOTH",
"401 242 LINE",
"531 251 LINE",
"529 297 LINE"
);
},
{
closed = 1;
nodes = (
"1295 1002 OFFCURVE",
"1480 1075 OFFCURVE",
"1480 1166 CURVE SMOOTH",
"1480 1257 OFFCURVE",
"1295 1330 OFFCURVE",
"1065 1330 CURVE SMOOTH",
"835 1330 OFFCURVE",
"650 1257 OFFCURVE",
"650 1166 CURVE SMOOTH",
"650 1075 OFFCURVE",
"835 1002 OFFCURVE",
"1065 1002 CURVE SMOOTH"
);
},
{
closed = 1;
nodes = (
"1836 583 OFFCURVE",
"1948 574 OFFCURVE",
"1973 630 CURVE SMOOTH",
"2001 692 OFFCURVE",
"1942 791 OFFCURVE",
"1836 859 CURVE SMOOTH",
"1730 927 OFFCURVE",
"1623 941 OFFCURVE",
"1596 882 CURVE SMOOTH",
"1568 821 OFFCURVE",
"1628 722 OFFCURVE",
"1733 652 CURVE SMOOTH"
);
},
{
closed = 1;
nodes = (
"657 589 OFFCURVE",
"328 817 OFFCURVE",
"7 731 CURVE",
"108 352 OFFCURVE",
"301 261 OFFCURVE",
"651 355 CURVE",
"600 433 OFFCURVE",
"491 492 OFFCURVE",
"166 644 CURVE",
"547 510 OFFCURVE",
"606 449 OFFCURVE",
"713 390 CURVE"
);
},
{
closed = 1;
nodes = (
"572 1156 LINE",
"683 -68 LINE SMOOTH",
"693 -177 OFFCURVE",
"833 -270 OFFCURVE",
"1039 -270 CURVE SMOOTH",
"1205 -270 OFFCURVE",
"1389 -202 OFFCURVE",
"1448 -127 CURVE SMOOTH",
"2009 577 LINE",
"1999 628 LINE",
"1977 507 OFFCURVE",
"1814 541 OFFCURVE",
"1700 614 CURVE SMOOTH",
"1588 686 OFFCURVE",
"1559 773 OFFCURVE",
"1542 853 CURVE",
"1522 853 LINE",
"1431 524 LINE",
"1387 524 LINE",
"1554 1156 LINE",
"1527 1197 LINE",
"1537 1018 OFFCURVE",
"1312 945 OFFCURVE",
"1065 945 CURVE SMOOTH",
"818 945 OFFCURVE",
"581 1018 OFFCURVE",
"603 1197 CURVE"
);
}
);
};
layerId = "D4EE34A4-BBD8-48A5-B1C1-325A5896F021";
width = 2016;
},
{
background = {
paths = (
{
closed = 1;
nodes = (
"426 657 LINE",
"396 677 LINE",
"426 697 LINE",
"396 717 LINE",
"426 737 LINE",
"396 757 LINE",
"426 777 LINE",
"396 797 LINE",
"426 817 LINE",
"413 913 LINE",
"298 1013 LINE",
"268 1013 LINE",
"275 276 LINE",
"424 276 LINE"
);
},
{
closed = 1;
nodes = (
"325 870 LINE",
"325 296 LINE",
"308 296 LINE",
"308 873 LINE"
);
},
{
closed = 1;
nodes = (
"223 297 LINE",
"233 235 LINE",
"296 242 LINE",
"296 81 LINE",
"306 -109 LINE",
"441 -78 LINE",
"429 -45 OFFCURVE",
"414 -11 OFFCURVE",
"412 23 CURVE SMOOTH",
"401 242 LINE",
"531 251 LINE",
"529 297 LINE"
);
},
{
closed = 1;
nodes = (
"1295 1002 OFFCURVE",
"1480 1075 OFFCURVE",
"1480 1166 CURVE SMOOTH",
"1480 1257 OFFCURVE",
"1295 1330 OFFCURVE",
"1065 1330 CURVE SMOOTH",
"835 1330 OFFCURVE",
"650 1257 OFFCURVE",
"650 1166 CURVE SMOOTH",
"650 1075 OFFCURVE",
"835 1002 OFFCURVE",
"1065 1002 CURVE SMOOTH"
);
},
{
closed = 1;
nodes = (
"1836 583 OFFCURVE",
"1948 574 OFFCURVE",
"1973 630 CURVE SMOOTH",
"2001 692 OFFCURVE",
"1942 791 OFFCURVE",
"1836 859 CURVE SMOOTH",
"1730 927 OFFCURVE",
"1623 941 OFFCURVE",
"1596 882 CURVE SMOOTH",
"1568 821 OFFCURVE",
"1628 722 OFFCURVE",
"1733 652 CURVE SMOOTH"
);
},
{
closed = 1;
nodes = (
"657 589 OFFCURVE",
"328 817 OFFCURVE",
"7 731 CURVE",
"108 352 OFFCURVE",
"301 261 OFFCURVE",
"651 355 CURVE",
"600 433 OFFCURVE",
"491 492 OFFCURVE",
"166 644 CURVE",
"547 510 OFFCURVE",
"606 449 OFFCURVE",
"713 390 CURVE"
);
},
{
closed = 1;
nodes = (
"572 1156 LINE",
"683 -68 LINE SMOOTH",
"693 -177 OFFCURVE",
"833 -270 OFFCURVE",
"1039 -270 CURVE SMOOTH",
"1205 -270 OFFCURVE",
"1389 -202 OFFCURVE",
"1448 -127 CURVE SMOOTH",
"2009 577 LINE",
"1999 628 LINE",
"1977 507 OFFCURVE",
"1814 541 OFFCURVE",
"1700 614 CURVE SMOOTH",
"1588 686 OFFCURVE",
"1559 773 OFFCURVE",
"1542 853 CURVE",
"1522 853 LINE",
"1431 524 LINE",
"1387 524 LINE",
"1554 1156 LINE",
"1527 1197 LINE",
"1537 1018 OFFCURVE",
"1312 945 OFFCURVE",
"1065 945 CURVE SMOOTH",
"818 945 OFFCURVE",
"581 1018 OFFCURVE",
"603 1197 CURVE"
);
}
);
};
layerId = m002;
width = 2016;
}
);
unicode = 0057;
},
{
glyphname = X;
lastChange = "2020-11-27 20:45:16 +0000";
layers = (
{
background = {
paths = (
{
closed = 1;
nodes = (
"1949 770 OFFCURVE",
"1933 849 OFFCURVE",
"1904 924 CURVE",
"1825 950 OFFCURVE",
"1744 963 OFFCURVE",
"1662 962 CURVE",
"1704 1031 OFFCURVE",
"1734 1106 OFFCURVE",
"1754 1187 CURVE",
"1702 1251 OFFCURVE",
"1643 1309 OFFCURVE",
"1576 1359 CURVE",
"1566 1253 OFFCURVE",
"1525 1155 OFFCURVE",
"1465 1075 CURVE",
"1345 1187 OFFCURVE",
"1185 1256 OFFCURVE",
"1008 1256 CURVE SMOOTH",
"830 1256 OFFCURVE",
"669 1186 OFFCURVE",
"549 1073 CURVE",
"489 1154 OFFCURVE",
"449 1252 OFFCURVE",
"436 1359 CURVE",
"370 1310 OFFCURVE",
"312 1252 OFFCURVE",
"261 1188 CURVE",
"278 1116 OFFCURVE",
"304 1046 OFFCURVE",
"339 983 CURVE",
"264 983 OFFCURVE",
"191 973 OFFCURVE",
"117 952 CURVE",
"87 878 OFFCURVE",
"69 798 OFFCURVE",
"58 716 CURVE",
"157 757 OFFCURVE",
"261 769 OFFCURVE",
"361 754 CURVE",
"347 701 OFFCURVE",
"338 645 OFFCURVE",
"338 587 CURVE",
"338 290 OFFCURVE",
"534 40 OFFCURVE",
"803 -48 CURVE",
"760 -140 OFFCURVE",
"694 -223 OFFCURVE",
"607 -284 CURVE",
"679 -317 OFFCURVE",
"757 -342 OFFCURVE",
"837 -355 CURVE",
"900 -300 OFFCURVE",
"954 -240 OFFCURVE",
"995 -170 CURVE",
"1032 -240 OFFCURVE",
"1084 -302 OFFCURVE",
"1143 -359 CURVE",
"1226 -346 OFFCURVE",
"1306 -329 OFFCURVE",
"1380 -297 CURVE",
"1294 -233 OFFCURVE",
"1230 -149 OFFCURVE",
"1191 -54 CURVE",
"1471 26 OFFCURVE",
"1678 281 OFFCURVE",
"1678 587 CURVE",
"1678 637 OFFCURVE",
"1671 686 OFFCURVE",
"1661 734 CURVE",
"1760 744 OFFCURVE",
"1862 729 OFFCURVE",
"1958 686 CURVE"
);
},
{
closed = 1;
nodes = (
"1277 897 OFFCURVE",
"1148 845 OFFCURVE",
"1007 845 CURVE SMOOTH",
"865 845 OFFCURVE",
"737 897 OFFCURVE",
"639 981 CURVE",
"735 1072 OFFCURVE",
"865 1129 OFFCURVE",
"1008 1129 CURVE SMOOTH",
"1151 1129 OFFCURVE",
"1280 1073 OFFCURVE",
"1376 983 CURVE"
);
},
{
closed = 1;
nodes = (
"466 634 OFFCURVE",
"474 678 OFFCURVE",
"485 721 CURVE",
"607 675 OFFCURVE",
"715 588 OFFCURVE",
"782 464 CURVE SMOOTH",
"849 339 OFFCURVE",
"867 203 OFFCURVE",
"841 75 CURVE",
"624 146 OFFCURVE",
"466 347 OFFCURVE",
"466 587 CURVE SMOOTH"
);
},
{
closed = 1;
nodes = (
"1550 341 OFFCURVE",
"1383 133 OFFCURVE",
"1157 69 CURVE",
"1134 198 OFFCURVE",
"1154 335 OFFCURVE",
"1227 458 CURVE SMOOTH",
"1300 581 OFFCURVE",
"1410 664 OFFCURVE",
"1536 706 CURVE",
"1544 667 OFFCURVE",
"1550 629 OFFCURVE",
"1550 587 CURVE SMOOTH"
);
},
{
closed = 1;
nodes = (
"1157 931 LINE",
"1134 802 OFFCURVE",
"1154 665 OFFCURVE",
"1227 542 CURVE SMOOTH",
"1300 419 OFFCURVE",
"1410 336 OFFCURVE",
"1536 294 CURVE",
"1661 266 LINE",
"1760 256 OFFCURVE",
"1862 271 OFFCURVE",
"1958 314 CURVE",
"1949 230 OFFCURVE",
"1933 151 OFFCURVE",
"1904 76 CURVE",
"1825 50 OFFCURVE",
"1744 37 OFFCURVE",
"1662 38 CURVE",
"1704 -31 OFFCURVE",
"1734 -106 OFFCURVE",
"1754 -187 CURVE",
"1702 -251 OFFCURVE",
"1643 -309 OFFCURVE",
"1576 -359 CURVE",
"1566 -253 OFFCURVE",
"1525 -155 OFFCURVE",
"1465 -75 CURVE",
"1376 17 LINE",
"1277 103 OFFCURVE",
"1148 155 OFFCURVE",
"1007 155 CURVE SMOOTH",
"865 155 OFFCURVE",
"737 103 OFFCURVE",
"639 19 CURVE",
"549 -73 LINE",
"489 -154 OFFCURVE",
"449 -252 OFFCURVE",
"436 -359 CURVE",
"370 -310 OFFCURVE",
"312 -252 OFFCURVE",
"261 -188 CURVE",
"278 -116 OFFCURVE",
"304 -46 OFFCURVE",
"339 17 CURVE",
"264 17 OFFCURVE",
"191 27 OFFCURVE",
"117 48 CURVE",
"87 122 OFFCURVE",
"69 202 OFFCURVE",
"58 284 CURVE",
"157 243 OFFCURVE",
"261 231 OFFCURVE",
"361 246 CURVE",
"485 279 LINE",
"607 325 OFFCURVE",
"715 412 OFFCURVE",
"782 536 CURVE SMOOTH",
"849 661 OFFCURVE",
"867 797 OFFCURVE",
"841 925 CURVE",
"803 1048 LINE",
"760 1140 OFFCURVE",
"694 1223 OFFCURVE",
"607 1284 CURVE",
"679 1317 OFFCURVE",
"757 1342 OFFCURVE",
"837 1355 CURVE",
"900 1300 OFFCURVE",
"954 1240 OFFCURVE",
"995 1170 CURVE",
"1032 1240 OFFCURVE",
"1084 1302 OFFCURVE",
"1143 1359 CURVE",
"1226 1346 OFFCURVE",
"1306 1329 OFFCURVE",
"1380 1297 CURVE",
"1294 1233 OFFCURVE",
"1230 1149 OFFCURVE",
"1191 1054 CURVE"
);
}
);
};
layerId = "D4EE34A4-BBD8-48A5-B1C1-325A5896F021";
width = 2016;
},
{
background = {
paths = (
{
closed = 1;
nodes = (
"1949 770 OFFCURVE",
"1933 849 OFFCURVE",
"1904 924 CURVE",
"1825 950 OFFCURVE",
"1744 963 OFFCURVE",
"1662 962 CURVE",
"1704 1031 OFFCURVE",
"1734 1106 OFFCURVE",
"1754 1187 CURVE",
"1702 1251 OFFCURVE",
"1643 1309 OFFCURVE",
"1576 1359 CURVE",
"1566 1253 OFFCURVE",
"1525 1155 OFFCURVE",
"1465 1075 CURVE",
"1345 1187 OFFCURVE",
"1185 1256 OFFCURVE",
"1008 1256 CURVE SMOOTH",
"830 1256 OFFCURVE",
"669 1186 OFFCURVE",
"549 1073 CURVE",
"489 1154 OFFCURVE",
"449 1252 OFFCURVE",
"436 1359 CURVE",
"370 1310 OFFCURVE",
"312 1252 OFFCURVE",
"261 1188 CURVE",
"278 1116 OFFCURVE",
"304 1046 OFFCURVE",
"339 983 CURVE",
"264 983 OFFCURVE",
"191 973 OFFCURVE",
"117 952 CURVE",
"87 878 OFFCURVE",
"69 798 OFFCURVE",
"58 716 CURVE",
"157 757 OFFCURVE",
"261 769 OFFCURVE",
"361 754 CURVE",
"347 701 OFFCURVE",
"338 645 OFFCURVE",
"338 587 CURVE",
"338 290 OFFCURVE",
"534 40 OFFCURVE",
"803 -48 CURVE",
"760 -140 OFFCURVE",
"694 -223 OFFCURVE",
"607 -284 CURVE",
"679 -317 OFFCURVE",
"757 -342 OFFCURVE",
"837 -355 CURVE",
"900 -300 OFFCURVE",
"954 -240 OFFCURVE",
"995 -170 CURVE",
"1032 -240 OFFCURVE",
"1084 -302 OFFCURVE",
"1143 -359 CURVE",
"1226 -346 OFFCURVE",
"1306 -329 OFFCURVE",
"1380 -297 CURVE",
"1294 -233 OFFCURVE",
"1230 -149 OFFCURVE",
"1191 -54 CURVE",
"1471 26 OFFCURVE",
"1678 281 OFFCURVE",
"1678 587 CURVE",
"1678 637 OFFCURVE",
"1671 686 OFFCURVE",
"1661 734 CURVE",
"1760 744 OFFCURVE",
"1862 729 OFFCURVE",
"1958 686 CURVE"
);
},
{
closed = 1;
nodes = (
"1277 897 OFFCURVE",
"1148 845 OFFCURVE",
"1007 845 CURVE SMOOTH",
"865 845 OFFCURVE",
"737 897 OFFCURVE",
"639 981 CURVE",
"735 1072 OFFCURVE",
"865 1129 OFFCURVE",
"1008 1129 CURVE SMOOTH",
"1151 1129 OFFCURVE",
"1280 1073 OFFCURVE",
"1376 983 CURVE"
);
},
{
closed = 1;
nodes = (
"466 634 OFFCURVE",
"474 678 OFFCURVE",
"485 721 CURVE",
"607 675 OFFCURVE",
"715 588 OFFCURVE",
"782 464 CURVE SMOOTH",
"849 339 OFFCURVE",
"867 203 OFFCURVE",
"841 75 CURVE",
"624 146 OFFCURVE",
"466 347 OFFCURVE",
"466 587 CURVE SMOOTH"
);
},
{
closed = 1;
nodes = (
"1550 341 OFFCURVE",
"1383 133 OFFCURVE",
"1157 69 CURVE",
"1134 198 OFFCURVE",
"1154 335 OFFCURVE",
"1227 458 CURVE SMOOTH",
"1300 581 OFFCURVE",
"1410 664 OFFCURVE",
"1536 706 CURVE",
"1544 667 OFFCURVE",
"1550 629 OFFCURVE",
"1550 587 CURVE SMOOTH"
);
},
{
closed = 1;
nodes = (
"1157 931 LINE",
"1134 802 OFFCURVE",
"1154 665 OFFCURVE",
"1227 542 CURVE SMOOTH",
"1300 419 OFFCURVE",
"1410 336 OFFCURVE",
"1536 294 CURVE",
"1661 266 LINE",
"1760 256 OFFCURVE",
"1862 271 OFFCURVE",
"1958 314 CURVE",
"1949 230 OFFCURVE",
"1933 151 OFFCURVE",
"1904 76 CURVE",
"1825 50 OFFCURVE",
"1744 37 OFFCURVE",
"1662 38 CURVE",
"1704 -31 OFFCURVE",
"1734 -106 OFFCURVE",
"1754 -187 CURVE",
"1702 -251 OFFCURVE",
"1643 -309 OFFCURVE",
"1576 -359 CURVE",
"1566 -253 OFFCURVE",
"1525 -155 OFFCURVE",
"1465 -75 CURVE",
"1376 17 LINE",
"1277 103 OFFCURVE",
"1148 155 OFFCURVE",
"1007 155 CURVE SMOOTH",
"865 155 OFFCURVE",
"737 103 OFFCURVE",
"639 19 CURVE",
"549 -73 LINE",
"489 -154 OFFCURVE",
"449 -252 OFFCURVE",
"436 -359 CURVE",
"370 -310 OFFCURVE",
"312 -252 OFFCURVE",
"261 -188 CURVE",
"278 -116 OFFCURVE",
"304 -46 OFFCURVE",
"339 17 CURVE",
"264 17 OFFCURVE",
"191 27 OFFCURVE",
"117 48 CURVE",
"87 122 OFFCURVE",
"69 202 OFFCURVE",
"58 284 CURVE",
"157 243 OFFCURVE",
"261 231 OFFCURVE",
"361 246 CURVE",
"485 279 LINE",
"607 325 OFFCURVE",
"715 412 OFFCURVE",
"782 536 CURVE SMOOTH",
"849 661 OFFCURVE",
"867 797 OFFCURVE",
"841 925 CURVE",
"803 1048 LINE",
"760 1140 OFFCURVE",
"694 1223 OFFCURVE",
"607 1284 CURVE",
"679 1317 OFFCURVE",
"757 1342 OFFCURVE",
"837 1355 CURVE",
"900 1300 OFFCURVE",
"954 1240 OFFCURVE",
"995 1170 CURVE",
"1032 1240 OFFCURVE",
"1084 1302 OFFCURVE",
"1143 1359 CURVE",
"1226 1346 OFFCURVE",
"1306 1329 OFFCURVE",
"1380 1297 CURVE",
"1294 1233 OFFCURVE",
"1230 1149 OFFCURVE",
"1191 1054 CURVE"
);
}
);
};
layerId = m002;
width = 2016;
}
);
unicode = 0058;
},
{
glyphname = a;
lastChange = "2020-11-27 20:45:11 +0000";
layers = (
{
background = {
paths = (
{
closed = 1;
nodes = (
"64 1214 LINE",
"864 -172 LINE",
"1664 1214 LINE"
);
},
{
closed = 1;
nodes = (
"864 338 LINE",
"506 959 LINE",
"1222 959 LINE"
);
},
{
closed = 1;
nodes = (
"1664 81 LINE",
"64 81 LINE",
"64 -172 LINE",
"1664 -172 LINE"
);
},
{
closed = 1;
nodes = (
"823 -117 LINE SMOOTH",
"429 -117 OFFCURVE",
"108 209 OFFCURVE",
"108 609 CURVE SMOOTH",
"108 1008 OFFCURVE",
"429 1333 OFFCURVE",
"823 1333 CURVE SMOOTH",
"1113 1333 OFFCURVE",
"1376 1151 OFFCURVE",
"1484 882 CURVE",
"1524 894 OFFCURVE",
"1566 899 OFFCURVE",
"1608 899 CURVE SMOOTH",
"1885 899 OFFCURVE",
"2108 670 OFFCURVE",
"2108 390 CURVE SMOOTH",
"2108 111 OFFCURVE",
"1885 -117 OFFCURVE",
"1588 -117 CURVE SMOOTH"
);
}
);
};
layerId = "D4EE34A4-BBD8-48A5-B1C1-325A5896F021";
width = 2016;
},
{
background = {
paths = (
{
closed = 1;
nodes = (
"64 1214 LINE",
"864 -172 LINE",
"1664 1214 LINE"
);
},
{
closed = 1;
nodes = (
"864 338 LINE",
"506 959 LINE",
"1222 959 LINE"
);
},
{
closed = 1;
nodes = (
"1664 81 LINE",
"64 81 LINE",
"64 -172 LINE",
"1664 -172 LINE"
);
},
{
closed = 1;
nodes = (
"823 -117 LINE SMOOTH",
"429 -117 OFFCURVE",
"108 209 OFFCURVE",
"108 609 CURVE SMOOTH",
"108 1008 OFFCURVE",
"429 1333 OFFCURVE",
"823 1333 CURVE SMOOTH",
"1113 1333 OFFCURVE",
"1376 1151 OFFCURVE",
"1484 882 CURVE",
"1524 894 OFFCURVE",
"1566 899 OFFCURVE",
"1608 899 CURVE SMOOTH",
"1885 899 OFFCURVE",
"2108 670 OFFCURVE",
"2108 390 CURVE SMOOTH",
"2108 111 OFFCURVE",
"1885 -117 OFFCURVE",
"1588 -117 CURVE SMOOTH"
);
}
);
};
layerId = m002;
width = 2016;
}
);
unicode = 0061;
},
{
glyphname = b;
lastChange = "2020-11-27 20:45:42 +0000";
layers = (
{
background = {
paths = (
{
closed = 1;
nodes = (
"742 9 LINE",
"742 -334 LINE",
"1872 609 LINE",
"1872 953 LINE"
);
},
{
closed = 1;
nodes = (
"1274 1394 LINE",
"144 451 LINE",
"144 96 LINE",
"1274 1039 LINE"
);
},
{
closed = 1;
nodes = (
"144 609 LINE",
"1274 -334 LINE",
"1274 9 LINE",
"144 953 LINE"
);
},
{
closed = 1;
nodes = (
"1872 96 LINE",
"1872 451 LINE",
"742 1394 LINE",
"742 1039 LINE"
);
},
{
closed = 1;
nodes = (
"397 -685 OFFCURVE",
"477 -766 OFFCURVE",
"577 -766 CURVE SMOOTH",
"644 -766 OFFCURVE",
"702 -730 OFFCURVE",
"733 -676 CURVE",
"1501 -676 LINE",
"1532 -730 OFFCURVE",
"1590 -766 OFFCURVE",
"1657 -766 CURVE SMOOTH",
"1757 -766 OFFCURVE",
"1837 -685 OFFCURVE",
"1837 -586 CURVE SMOOTH",
"1837 -486 OFFCURVE",
"1757 -406 OFFCURVE",
"1657 -406 CURVE SMOOTH",
"1590 -406 OFFCURVE",
"1532 -442 OFFCURVE",
"1501 -496 CURVE",
"733 -496 LINE",
"702 -442 OFFCURVE",
"644 -406 OFFCURVE",
"577 -406 CURVE SMOOTH",
"477 -406 OFFCURVE",
"397 -486 OFFCURVE",
"397 -586 CURVE SMOOTH"
);
},
{
closed = 1;
nodes = (
"1274 1394 LINE",
"144 451 LINE",
"144 96 LINE",
"1274 1039 LINE"
);
},
{
closed = 1;
nodes = (
"1872 96 LINE",
"1872 451 LINE",
"742 1394 LINE",
"742 1039 LINE"
);
},
{
closed = 1;
nodes = (
"1574 494 LINE",
"344 -49 LINE",
"344 -304 LINE",
"1574 239 LINE"
);
},
{
closed = 1;
nodes = (
"1672 -304 LINE",
"1672 -49 LINE",
"442 494 LINE",
"442 239 LINE"
);
}
);
};
layerId = "D4EE34A4-BBD8-48A5-B1C1-325A5896F021";
width = 2016;
},
{
background = {
paths = (
{
closed = 1;
nodes = (
"742 9 LINE",
"742 -334 LINE",
"1872 609 LINE",
"1872 953 LINE"
);
},
{
closed = 1;
nodes = (
"1274 1394 LINE",
"144 451 LINE",
"144 96 LINE",
"1274 1039 LINE"
);
},
{
closed = 1;
nodes = (
"144 609 LINE",
"1274 -334 LINE",
"1274 9 LINE",
"144 953 LINE"
);
},
{
closed = 1;
nodes = (
"1872 96 LINE",
"1872 451 LINE",
"742 1394 LINE",
"742 1039 LINE"
);
},
{
closed = 1;
nodes = (
"397 -685 OFFCURVE",
"477 -766 OFFCURVE",
"577 -766 CURVE SMOOTH",
"644 -766 OFFCURVE",
"702 -730 OFFCURVE",
"733 -676 CURVE",
"1501 -676 LINE",
"1532 -730 OFFCURVE",
"1590 -766 OFFCURVE",
"1657 -766 CURVE SMOOTH",
"1757 -766 OFFCURVE",
"1837 -685 OFFCURVE",
"1837 -586 CURVE SMOOTH",
"1837 -486 OFFCURVE",
"1757 -406 OFFCURVE",
"1657 -406 CURVE SMOOTH",
"1590 -406 OFFCURVE",
"1532 -442 OFFCURVE",
"1501 -496 CURVE",
"733 -496 LINE",
"702 -442 OFFCURVE",
"644 -406 OFFCURVE",
"577 -406 CURVE SMOOTH",
"477 -406 OFFCURVE",
"397 -486 OFFCURVE",
"397 -586 CURVE SMOOTH"
);
},
{
closed = 1;
nodes = (
"1274 1394 LINE",
"144 451 LINE",
"144 96 LINE",
"1274 1039 LINE"
);
},
{
closed = 1;
nodes = (
"1872 96 LINE",
"1872 451 LINE",
"742 1394 LINE",
"742 1039 LINE"
);
},
{
closed = 1;
nodes = (
"1574 494 LINE",
"344 -49 LINE",
"344 -304 LINE",
"1574 239 LINE"
);
},
{
closed = 1;
nodes = (
"1672 -304 LINE",
"1672 -49 LINE",
"442 494 LINE",
"442 239 LINE"
);
}
);
};
layerId = m002;
width = 2016;
}
);
unicode = 0062;
},
{
glyphname = c;
lastChange = "2022-02-02 17:45:23 +0000";
layers = (
{
background = {
paths = (
{
closed = 1;
nodes = (
"264 115 LINE",
"264 -125 LINE",
"1464 -125 LINE",
"1464 115 LINE"
);
},
{
closed = 1;
nodes = (
"264 435 LINE",
"264 195 LINE",
"1464 195 LINE",
"1464 435 LINE"
);
},
{
closed = 1;
nodes = (
"854 755 LINE",
"1004 515 LINE",
"1464 515 LINE",
"1464 755 LINE"
);
},
{
closed = 1;
nodes = (
"15 515 LINE",
"915 515 LINE",
"465 1235 LINE"
);
}
);
};
layerId = "D4EE34A4-BBD8-48A5-B1C1-325A5896F021";
paths = (
{
closed = 1;
nodes = (
"808 -92 LINE",
"1856 956 LINE",
"1820 992 LINE",
"772 -56 LINE"
);
},
{
closed = 1;
nodes = (
"160 556 LINE",
"808 -92 LINE",
"844 -56 LINE",
"196 592 LINE"
);
}
);
width = 2016;
},
{
background = {
paths = (
{
closed = 1;
nodes = (
"264 115 LINE",
"264 -125 LINE",
"1464 -125 LINE",
"1464 115 LINE"
);
},
{
closed = 1;
nodes = (
"264 435 LINE",
"264 195 LINE",
"1464 195 LINE",
"1464 435 LINE"
);
},
{
closed = 1;
nodes = (
"854 755 LINE",
"1004 515 LINE",
"1464 515 LINE",
"1464 755 LINE"
);
},
{
closed = 1;
nodes = (
"15 515 LINE",
"915 515 LINE",
"465 1235 LINE"
);
}
);
};
layerId = m002;
paths = (
{
closed = 1;
nodes = (
"809 -215 LINE",
"1856 832 LINE",
"1573 1115 LINE",
"526 68 LINE"
);
},
{
closed = 1;
nodes = (
"160 434 LINE",
"809 -215 LINE",
"1092 68 LINE",
"443 717 LINE"
);
}
);
width = 2016;
}
);
unicode = 0063;
},
{
glyphname = d;
lastChange = "2020-11-27 20:48:54 +0000";
layers = (
{
background = {
paths = (
{
closed = 1;
nodes = (
"1541.192 783.041 CURVE",
"1733.377 945.642 LINE",
"1790.307 846.35 OFFCURVE",
"1827.567 734.083 OFFCURVE",
"1840 614 CURVE",
"2016 614 LINE",
"2016 446 LINE",
"1840 446 LINE",
"1801 48 OFFCURVE",
"1489 -262 OFFCURVE",
"1092 -302 CURVE",
"1092 -478 LINE",
"924 -478 LINE",
"924 -302 LINE",
"755.405 -284.5 OFFCURVE",
"601.931 -217.813 OFFCURVE",
"478.196 -116.322 CURVE",
"670.199 46.124 LINE",
"766 -21 OFFCURVE",
"882 -60 OFFCURVE",
"1008 -60 CURVE SMOOTH",
"1334 -60 OFFCURVE",
"1598 204 OFFCURVE",
"1598 530 CURVE SMOOTH",
"1598 617 OFFCURVE",
"1577 705 OFFCURVE"
);
},
{
closed = 1;
nodes = (
"1250 1081 OFFCURVE",
"1134 1120 OFFCURVE",
"1008 1120 CURVE SMOOTH",
"682 1120 OFFCURVE",
"418 856 OFFCURVE",
"418 530 CURVE SMOOTH",
"418 439 OFFCURVE",
"439 354 OFFCURVE",
"476 277 CURVE",
"283 114 LINE",
"226 214 OFFCURVE",
"188 326 OFFCURVE",
"176 446 CURVE",
"0 446 LINE",
"0 614 LINE",
"176 614 LINE",
"217 1010 OFFCURVE",
"529 1321 OFFCURVE",
"924 1362 CURVE",
"924 1538 LINE",
"1092 1538 LINE",
"1092 1362 LINE",
"1261 1345 OFFCURVE",
"1414 1278 OFFCURVE",
"1538 1176 CURVE",
"1346 1014 LINE"
);
},
{
closed = 1;
nodes = (
"1872 1394 LINE",
"144 -68 LINE",
"144 -334 LINE",
"1872 1128 LINE"
);
}
);
};
layerId = "D4EE34A4-BBD8-48A5-B1C1-325A5896F021";
width = 1728;
},
{
background = {
paths = (
{
closed = 1;
nodes = (
"1541.192 783.041 CURVE",
"1733.377 945.642 LINE",
"1790.307 846.35 OFFCURVE",
"1827.567 734.083 OFFCURVE",
"1840 614 CURVE",
"2016 614 LINE",
"2016 446 LINE",
"1840 446 LINE",
"1801 48 OFFCURVE",
"1489 -262 OFFCURVE",
"1092 -302 CURVE",
"1092 -478 LINE",
"924 -478 LINE",
"924 -302 LINE",
"755.405 -284.5 OFFCURVE",
"601.931 -217.813 OFFCURVE",
"478.196 -116.322 CURVE",
"670.199 46.124 LINE",
"766 -21 OFFCURVE",
"882 -60 OFFCURVE",
"1008 -60 CURVE SMOOTH",
"1334 -60 OFFCURVE",
"1598 204 OFFCURVE",
"1598 530 CURVE SMOOTH",
"1598 617 OFFCURVE",
"1577 705 OFFCURVE"
);
},
{
closed = 1;
nodes = (
"1250 1081 OFFCURVE",
"1134 1120 OFFCURVE",
"1008 1120 CURVE SMOOTH",
"682 1120 OFFCURVE",
"418 856 OFFCURVE",
"418 530 CURVE SMOOTH",
"418 439 OFFCURVE",
"439 354 OFFCURVE",
"476 277 CURVE",
"283 114 LINE",
"226 214 OFFCURVE",
"188 326 OFFCURVE",
"176 446 CURVE",
"0 446 LINE",
"0 614 LINE",
"176 614 LINE",
"217 1010 OFFCURVE",
"529 1321 OFFCURVE",
"924 1362 CURVE",
"924 1538 LINE",
"1092 1538 LINE",
"1092 1362 LINE",
"1261 1345 OFFCURVE",
"1414 1278 OFFCURVE",
"1538 1176 CURVE",
"1346 1014 LINE"
);
},
{
closed = 1;
nodes = (
"1872 1394 LINE",
"144 -68 LINE",
"144 -334 LINE",
"1872 1128 LINE"
);
}
);
};
layerId = m002;
width = 1728;
}
);
unicode = 0064;
},
{
glyphname = e;
lastChange = "2020-11-27 20:48:55 +0000";
layers = (
{
background = {
paths = (
{
closed = 1;
nodes = (
"-2 257 LINE",
"744 257 LINE",
"744 -488 LINE",
"2018 786 LINE",
"1272 786 LINE",
"1272 1532 LINE"
);
},
{
closed = 1;
nodes = (
"1152 666 LINE",
"1728 666 LINE",
"864 -198 LINE",
"864 377 LINE",
"287 377 LINE",
"1152 1242 LINE"
);
},
{
closed = 1;
nodes = (
"1008 1467 LINE",
"63 522 LINE",
"1008 -423 LINE",
"1953 522 LINE"
);
},
{
closed = 1;
nodes = (
"220 522 LINE",
"1008 1310 LINE",
"1796 522 LINE",
"1008 -266 LINE"
);
}
);
};
layerId = "D4EE34A4-BBD8-48A5-B1C1-325A5896F021";
width = 2016;
},
{
background = {
paths = (
{
closed = 1;
nodes = (
"-2 257 LINE",
"744 257 LINE",
"744 -488 LINE",
"2018 786 LINE",
"1272 786 LINE",
"1272 1532 LINE"
);
},
{
closed = 1;
nodes = (
"1152 666 LINE",
"1728 666 LINE",
"864 -198 LINE",
"864 377 LINE",
"287 377 LINE",
"1152 1242 LINE"
);
},
{
closed = 1;
nodes = (
"1008 1467 LINE",
"63 522 LINE",
"1008 -423 LINE",
"1953 522 LINE"
);
},
{
closed = 1;
nodes = (
"220 522 LINE",
"1008 1310 LINE",
"1796 522 LINE",
"1008 -266 LINE"
);
}
);
};
layerId = m002;
width = 2016;
}
);
unicode = 0065;
},
{
glyphname = f;
lastChange = "2020-11-27 20:48:57 +0000";
layers = (
{
background = {
paths = (
{
closed = 1;
nodes = (
"1421 -196 OFFCURVE",
"1758 142 OFFCURVE",
"1758 554 CURVE SMOOTH",
"1758 967 OFFCURVE",
"1420 1302 OFFCURVE",
"1008 1304 CURVE SMOOTH",
"838 1305 OFFCURVE",
"683 1249 OFFCURVE",
"558 1154 CURVE",
"588 1167 OFFCURVE",
"620 1172 OFFCURVE",
"654 1172 CURVE SMOOTH",
"801 1172 OFFCURVE",
"920 1054 OFFCURVE",
"920 909 CURVE SMOOTH",
"920 759 OFFCURVE",
"801 642 OFFCURVE",
"654 642 CURVE SMOOTH",
"508 642 OFFCURVE",
"390 761 OFFCURVE",
"390 909 CURVE",
"390 942 OFFCURVE",
"396 974 OFFCURVE",
"408 1004 CURVE",
"313 879 OFFCURVE",
"258 724 OFFCURVE",
"258 554 CURVE SMOOTH",
"258 142 OFFCURVE",
"595 -196 OFFCURVE",
"1008 -196 CURVE SMOOTH"
);
},
{
closed = 0;
nodes = (
"1131 -197 LINE"
);
},
{
closed = 1;
nodes = (
"1008 1487 LINE",
"1941 554 LINE",
"1008 -379 LINE",
"75 554 LINE",
"371 850 LINE",
"368 922 LINE",
"0 554 LINE",
"1008 -454 LINE",
"2016 554 LINE",
"1008 1562 LINE",
"637 1191 LINE",
"712 1191 LINE"
);
},
{
closed = 1;
nodes = (
"644 920 OFFCURVE",
"585 979 OFFCURVE",
"585 1052 CURVE SMOOTH",
"585 1124 OFFCURVE",
"644 1183 OFFCURVE",
"718 1183 CURVE SMOOTH",
"790 1183 OFFCURVE",
"849 1124 OFFCURVE",
"849 1052 CURVE SMOOTH",
"849 979 OFFCURVE",
"790 920 OFFCURVE",
"718 920 CURVE SMOOTH"
);
},
{
closed = 1;
nodes = (
"675 164 OFFCURVE",
"403 437 OFFCURVE",
"403 769 CURVE SMOOTH",
"403 906 OFFCURVE",
"447 1031 OFFCURVE",
"524 1132 CURVE",
"514 1108 OFFCURVE",
"509 1082 OFFCURVE",
"509 1056 CURVE",
"509 936 OFFCURVE",
"605 840 OFFCURVE",
"722 840 CURVE SMOOTH",
"841 840 OFFCURVE",
"937 934 OFFCURVE",
"937 1056 CURVE SMOOTH",
"937 1172 OFFCURVE",
"841 1268 OFFCURVE",
"722 1268 CURVE SMOOTH",
"695 1268 OFFCURVE",
"669 1264 OFFCURVE",
"645 1253 CURVE",
"746 1330 OFFCURVE",
"871 1375 OFFCURVE",
"1008 1374 CURVE SMOOTH",
"1145 1373 OFFCURVE",
"1270 1330 OFFCURVE",
"1371 1253 CURVE",
"1347 1264 OFFCURVE",
"1321 1268 OFFCURVE",
"1294 1268 CURVE SMOOTH",
"1175 1268 OFFCURVE",
"1079 1172 OFFCURVE",
"1079 1056 CURVE SMOOTH",
"1079 934 OFFCURVE",
"1175 840 OFFCURVE",
"1294 840 CURVE SMOOTH",
"1411 840 OFFCURVE",
"1507 936 OFFCURVE",
"1507 1056 CURVE",
"1507 1082 OFFCURVE",
"1502 1108 OFFCURVE",
"1492 1132 CURVE",
"1569 1031 OFFCURVE",
"1613 906 OFFCURVE",
"1613 769 CURVE SMOOTH",
"1613 437 OFFCURVE",
"1341 164 OFFCURVE",
"1008 164 CURVE SMOOTH"
);
},
{
closed = 1;
nodes = (
"1226 920 OFFCURVE",
"1167 979 OFFCURVE",
"1167 1052 CURVE SMOOTH",
"1167 1124 OFFCURVE",
"1226 1183 OFFCURVE",
"1298 1183 CURVE SMOOTH",
"1372 1183 OFFCURVE",
"1431 1124 OFFCURVE",
"1431 1052 CURVE SMOOTH",
"1431 979 OFFCURVE",
"1372 920 OFFCURVE",
"1298 920 CURVE SMOOTH"
);
}
);
};
layerId = "D4EE34A4-BBD8-48A5-B1C1-325A5896F021";
width = 2016;
},
{
background = {
paths = (
{
closed = 1;
nodes = (
"1421 -196 OFFCURVE",
"1758 142 OFFCURVE",
"1758 554 CURVE SMOOTH",
"1758 967 OFFCURVE",
"1420 1302 OFFCURVE",
"1008 1304 CURVE SMOOTH",
"838 1305 OFFCURVE",
"683 1249 OFFCURVE",
"558 1154 CURVE",
"588 1167 OFFCURVE",
"620 1172 OFFCURVE",
"654 1172 CURVE SMOOTH",
"801 1172 OFFCURVE",
"920 1054 OFFCURVE",
"920 909 CURVE SMOOTH",
"920 759 OFFCURVE",
"801 642 OFFCURVE",
"654 642 CURVE SMOOTH",
"508 642 OFFCURVE",
"390 761 OFFCURVE",
"390 909 CURVE",
"390 942 OFFCURVE",
"396 974 OFFCURVE",
"408 1004 CURVE",
"313 879 OFFCURVE",
"258 724 OFFCURVE",
"258 554 CURVE SMOOTH",
"258 142 OFFCURVE",
"595 -196 OFFCURVE",
"1008 -196 CURVE SMOOTH"
);
},
{
closed = 0;
nodes = (
"1131 -197 LINE"
);
},
{
closed = 1;
nodes = (
"1008 1487 LINE",
"1941 554 LINE",
"1008 -379 LINE",
"75 554 LINE",
"371 850 LINE",
"368 922 LINE",
"0 554 LINE",
"1008 -454 LINE",
"2016 554 LINE",
"1008 1562 LINE",
"637 1191 LINE",
"712 1191 LINE"
);
},
{
closed = 1;
nodes = (
"644 920 OFFCURVE",
"585 979 OFFCURVE",
"585 1052 CURVE SMOOTH",
"585 1124 OFFCURVE",
"644 1183 OFFCURVE",
"718 1183 CURVE SMOOTH",
"790 1183 OFFCURVE",
"849 1124 OFFCURVE",
"849 1052 CURVE SMOOTH",
"849 979 OFFCURVE",
"790 920 OFFCURVE",
"718 920 CURVE SMOOTH"
);
},
{
closed = 1;
nodes = (
"675 164 OFFCURVE",
"403 437 OFFCURVE",
"403 769 CURVE SMOOTH",
"403 906 OFFCURVE",
"447 1031 OFFCURVE",
"524 1132 CURVE",
"514 1108 OFFCURVE",
"509 1082 OFFCURVE",
"509 1056 CURVE",
"509 936 OFFCURVE",
"605 840 OFFCURVE",
"722 840 CURVE SMOOTH",
"841 840 OFFCURVE",
"937 934 OFFCURVE",
"937 1056 CURVE SMOOTH",
"937 1172 OFFCURVE",
"841 1268 OFFCURVE",
"722 1268 CURVE SMOOTH",
"695 1268 OFFCURVE",
"669 1264 OFFCURVE",
"645 1253 CURVE",
"746 1330 OFFCURVE",
"871 1375 OFFCURVE",
"1008 1374 CURVE SMOOTH",
"1145 1373 OFFCURVE",
"1270 1330 OFFCURVE",
"1371 1253 CURVE",
"1347 1264 OFFCURVE",
"1321 1268 OFFCURVE",
"1294 1268 CURVE SMOOTH",
"1175 1268 OFFCURVE",
"1079 1172 OFFCURVE",
"1079 1056 CURVE SMOOTH",
"1079 934 OFFCURVE",
"1175 840 OFFCURVE",
"1294 840 CURVE SMOOTH",
"1411 840 OFFCURVE",
"1507 936 OFFCURVE",
"1507 1056 CURVE",
"1507 1082 OFFCURVE",
"1502 1108 OFFCURVE",
"1492 1132 CURVE",
"1569 1031 OFFCURVE",
"1613 906 OFFCURVE",
"1613 769 CURVE SMOOTH",
"1613 437 OFFCURVE",
"1341 164 OFFCURVE",
"1008 164 CURVE SMOOTH"
);
},
{
closed = 1;
nodes = (
"1226 920 OFFCURVE",
"1167 979 OFFCURVE",
"1167 1052 CURVE SMOOTH",
"1167 1124 OFFCURVE",
"1226 1183 OFFCURVE",
"1298 1183 CURVE SMOOTH",
"1372 1183 OFFCURVE",
"1431 1124 OFFCURVE",
"1431 1052 CURVE SMOOTH",
"1431 979 OFFCURVE",
"1372 920 OFFCURVE",
"1298 920 CURVE SMOOTH"
);
}
);
};
layerId = m002;
width = 2016;
}
);
unicode = 0066;
},
{
glyphname = g;
lastChange = "2022-09-30 03:30:09 +0000";
layers = (
{
background = {
paths = (
{
closed = 1;
nodes = (
"1254 100 OFFCURVE",
"1458 305 OFFCURVE",
"1458 550 CURVE SMOOTH",
"1458 796 OFFCURVE",
"1254 1000 OFFCURVE",
"1008 1000 CURVE SMOOTH",
"762 1000 OFFCURVE",
"558 796 OFFCURVE",
"558 550 CURVE SMOOTH",
"558 304 OFFCURVE",
"762 100 OFFCURVE",
"1008 100 CURVE SMOOTH"
);
},
{
closed = 1;
nodes = (
"1230 950 OFFCURVE",
"1408 772 OFFCURVE",
"1408 550 CURVE SMOOTH",
"1408 328 OFFCURVE",
"1230 150 OFFCURVE",
"1008 150 CURVE SMOOTH",
"786 150 OFFCURVE",
"608 328 OFFCURVE",
"608 550 CURVE SMOOTH",
"608 772 OFFCURVE",
"786 950 OFFCURVE",
"1008 950 CURVE SMOOTH"
);
},
{
closed = 1;
nodes = (
"983 -196 LINE",
"1033 -196 LINE",
"1033 150 LINE",
"983 150 LINE"
);
},
{
closed = 1;
nodes = (
"983 950 LINE",
"1033 950 LINE",
"1033 1296 LINE",
"983 1296 LINE"
);
},
{
closed = 1;
nodes = (
"1754 525 LINE",
"1754 575 LINE",
"1408 575 LINE",
"1408 525 LINE"
);
},
{
closed = 1;
nodes = (
"608 525 LINE",
"608 575 LINE",
"262 575 LINE",
"262 525 LINE"
);
},
{
closed = 1;
nodes = (
"1518 5 LINE",
"1553 40 LINE",
"1309 285 LINE",
"1273 249 LINE"
);
},
{
closed = 1;
nodes = (
"707 815 LINE",
"743 851 LINE",
"498 1095 LINE",
"463 1060 LINE"
);
},
{
closed = 1;
nodes = (
"1553 1060 LINE",
"1518 1095 LINE",
"1273 851 LINE",
"1309 815 LINE"
);
},
{
closed = 1;
nodes = (
"743 249 LINE",
"707 285 LINE",
"463 40 LINE",
"498 5 LINE"
);
}
);
};
layerId = "D4EE34A4-BBD8-48A5-B1C1-325A5896F021";
width = 2016;
},
{
layerId = m002;
width = 2016;
}
);
unicode = 0067;
},
{
glyphname = j;
lastChange = "2020-12-08 00:28:14 +0000";
layers = (
{
layerId = "D4EE34A4-BBD8-48A5-B1C1-325A5896F021";
paths = (
{
closed = 1;
nodes = (
"1008 -264 LINE",
"1857 585 LINE",
"1821 621 LINE",
"972 -228 LINE"
);
},
{
closed = 1;
nodes = (
"159 585 LINE",
"1008 -264 LINE",
"1044 -228 LINE",
"195 621 LINE"
);
},
{
closed = 1;
nodes = (
"983 -196 LINE",
"1033 -196 LINE",
"1033 1434 LINE",
"983 1434 LINE"
);
}
);
width = 2016;
},
{
background = {
paths = (
{
closed = 1;
nodes = (
"521 1562 LINE",
"-487 554 LINE",
"521 -454 LINE",
"1529 554 LINE"
);
},
{
closed = 1;
nodes = (
"-412 554 LINE",
"521 1487 LINE",
"1454 554 LINE",
"521 -379 LINE"
);
}
);
};
layerId = m002;
paths = (
{
closed = 1;
nodes = (
"1008 -299 LINE",
"1856 549 LINE",
"1573 832 LINE",
"725 -16 LINE"
);
},
{
closed = 1;
nodes = (
"160 549 LINE",
"1008 -299 LINE",
"1291 -16 LINE",
"443 832 LINE"
);
},
{
closed = 1;
nodes = (
"808 99 LINE",
"1208 99 LINE",
"1208 1399 LINE",
"808 1399 LINE"
);
}
);
width = 2016;
}
);
unicode = 006A;
},
{
glyphname = k;
lastChange = "2020-12-08 00:30:38 +0000";
layers = (
{
background = {
paths = (
{
closed = 1;
nodes = (
"1008 1613 OFFCURVE",
"838 1362 OFFCURVE",
"675 1070 CURVE",
"791 1042 OFFCURVE",
"877 939 OFFCURVE",
"877 814 CURVE SMOOTH",
"877 667 OFFCURVE",
"758 548 OFFCURVE",
"612 548 CURVE SMOOTH",
"549 548 OFFCURVE",
"493 570 OFFCURVE",
"446 606 CURVE",
"405 499 OFFCURVE",
"379 404 OFFCURVE",
"379 334 CURVE SMOOTH",
"379 -13 OFFCURVE",
"661 -295 OFFCURVE",
"1008 -295 CURVE SMOOTH",
"1355 -295 OFFCURVE",
"1637 -13 OFFCURVE",
"1637 334 CURVE SMOOTH",
"1637 681 OFFCURVE",
"1008 1613 OFFCURVE",
"1008 1613 CURVE"
);
}
);
};
components = (
{
alignment = -1;
name = j;
transform = "{1, 0, 0, -1, 0, 1185}";
}
);
layerId = "D4EE34A4-BBD8-48A5-B1C1-325A5896F021";
width = 2016;
},
{
background = {
paths = (
{
closed = 1;
nodes = (
"1008 1613 OFFCURVE",
"838 1362 OFFCURVE",
"675 1070 CURVE",
"791 1042 OFFCURVE",
"877 939 OFFCURVE",
"877 814 CURVE SMOOTH",
"877 667 OFFCURVE",
"758 548 OFFCURVE",
"612 548 CURVE SMOOTH",
"549 548 OFFCURVE",
"493 570 OFFCURVE",
"446 606 CURVE",
"405 499 OFFCURVE",
"379 404 OFFCURVE",
"379 334 CURVE SMOOTH",
"379 -13 OFFCURVE",
"661 -295 OFFCURVE",
"1008 -295 CURVE SMOOTH",
"1355 -295 OFFCURVE",
"1637 -13 OFFCURVE",
"1637 334 CURVE SMOOTH",
"1637 681 OFFCURVE",
"1008 1613 OFFCURVE",
"1008 1613 CURVE"
);
}
);
};
components = (
{
alignment = -1;
name = j;
transform = "{1, 0, 0, -1, 0, 1185}";
}
);
layerId = m002;
width = 2016;
}
);
unicode = 006B;
},
{
glyphname = l;
lastChange = "2020-12-08 00:27:41 +0000";
layers = (
{
background = {
paths = (
{
closed = 1;
nodes = (
"1967 865 LINE",
"1967 1017 LINE",
"1913 1230 LINE",
"1301 1230 LINE",
"1530 1414 LINE",
"3155 1414 LINE",
"3155 1840 LINE",
"1662 1840 LINE",
"1662 2085 LINE",
"3368 2085 LINE",
"3368 2236 LINE",
"3313 2510 LINE",
"1662 2510 LINE",
"1662 2755 LINE",
"3271 2755 LINE",
"3191 3181 LINE",
"1662 3181 LINE",
"1662 3426 LINE",
"3118 3426 LINE",
"3038 3852 LINE",
"-895 3852 LINE",
"-895 2176 LINE",
"-224 2176 LINE",
"-224 1670 LINE",
"580 865 LINE"
);
},
{
closed = 1;
nodes = (
"1366 1161 LINE",
"1211 1189 LINE",
"1211 546 LINE",
"1122 546 LINE",
"1122 1216 LINE",
"967 1245 LINE",
"967 546 LINE",
"879 546 LINE",
"879 1260 LINE",
"779 1280 LINE",
"724 1280 LINE",
"724 546 LINE",
"654 546 LINE",
"779 491 LINE",
"779 217 LINE",
"712 217 LINE",
"712 428 LINE",
"413 561 LINE",
"413 878 LINE",
"335 897 LINE",
"280 897 LINE",
"280 266 LINE",
"573 -26 LINE",
"757 -26 LINE",
"757 -270 LINE",
"1366 -270 LINE"
);
},
{
closed = 1;
nodes = (
"480 623 LINE",
"635 555 LINE",
"635 1203 LINE",
"480 1203 LINE"
);
}
);
};
layerId = "D4EE34A4-BBD8-48A5-B1C1-325A5896F021";
paths = (
{
closed = 1;
nodes = (
"907 -263 LINE",
"943 -299 LINE",
"1792 550 LINE",
"1756 586 LINE"
);
},
{
closed = 1;
nodes = (
"1756 514 LINE",
"1792 550 LINE",
"943 1399 LINE",
"907 1363 LINE"
);
},
{
closed = 1;
nodes = (
"224 525 LINE",
"1724 525 LINE",
"1724 575 LINE",
"224 575 LINE"
);
}
);
width = 2016;
},
{
background = {
paths = (
{
closed = 1;
nodes = (
"1967 865 LINE",
"1967 1017 LINE",
"1913 1230 LINE",
"1301 1230 LINE",
"1530 1414 LINE",
"3155 1414 LINE",
"3155 1840 LINE",
"1662 1840 LINE",
"1662 2085 LINE",
"3368 2085 LINE",
"3368 2236 LINE",
"3313 2510 LINE",
"1662 2510 LINE",
"1662 2755 LINE",
"3271 2755 LINE",
"3191 3181 LINE",
"1662 3181 LINE",
"1662 3426 LINE",
"3118 3426 LINE",
"3038 3852 LINE",
"-895 3852 LINE",
"-895 2176 LINE",
"-224 2176 LINE",
"-224 1670 LINE",
"580 865 LINE"
);
},
{
closed = 1;
nodes = (
"1366 1161 LINE",
"1211 1189 LINE",
"1211 546 LINE",
"1122 546 LINE",
"1122 1216 LINE",
"967 1245 LINE",
"967 546 LINE",
"879 546 LINE",
"879 1260 LINE",
"779 1280 LINE",
"724 1280 LINE",
"724 546 LINE",
"654 546 LINE",
"779 491 LINE",
"779 217 LINE",
"712 217 LINE",
"712 428 LINE",
"413 561 LINE",
"413 878 LINE",
"335 897 LINE",
"280 897 LINE",
"280 266 LINE",
"573 -26 LINE",
"757 -26 LINE",
"757 -270 LINE",
"1366 -270 LINE"
);
},
{
closed = 1;
nodes = (
"480 623 LINE",
"635 555 LINE",
"635 1203 LINE",
"480 1203 LINE"
);
}
);
};
layerId = m002;
paths = (
{
closed = 1;
nodes = (
"725 -15 LINE",
"1008 -298 LINE",
"1856 550 LINE",
"1573 833 LINE"
);
},
{
closed = 1;
nodes = (
"1573 267 LINE",
"1856 550 LINE",
"1008 1398 LINE",
"725 1115 LINE"
);
},
{
closed = 1;
nodes = (
"160 350 LINE",
"1458 350 LINE",
"1458 750 LINE",
"160 750 LINE"
);
}
);
width = 2016;
}
);
unicode = 006C;
},
{
glyphname = o;
lastChange = "2020-12-11 23:14:50 +0000";
layers = (
{
layerId = "D4EE34A4-BBD8-48A5-B1C1-325A5896F021";
paths = (
{
closed = 1;
nodes = (
"1500 -350 OFFCURVE",
"1908 60 OFFCURVE",
"1908 550 CURVE SMOOTH",
"1908 1042 OFFCURVE",
"1500 1450 OFFCURVE",
"1008 1450 CURVE SMOOTH",
"516 1450 OFFCURVE",
"108 1042 OFFCURVE",
"108 550 CURVE SMOOTH",
"108 58 OFFCURVE",
"516 -350 OFFCURVE",
"1008 -350 CURVE SMOOTH"
);
},
{
closed = 1;
nodes = (
"1479 1400 OFFCURVE",
"1858 1021 OFFCURVE",
"1858 550 CURVE SMOOTH",
"1858 79 OFFCURVE",
"1479 -300 OFFCURVE",
"1008 -300 CURVE SMOOTH",
"537 -300 OFFCURVE",
"158 79 OFFCURVE",
"158 550 CURVE SMOOTH",
"158 1021 OFFCURVE",
"537 1400 OFFCURVE",
"1008 1400 CURVE SMOOTH"
);
}
);
width = 2016;
},
{
layerId = m002;
paths = (
{
closed = 1;
nodes = (
"1500 -350 OFFCURVE",
"1908 60 OFFCURVE",
"1908 550 CURVE SMOOTH",
"1908 1042 OFFCURVE",
"1500 1450 OFFCURVE",
"1008 1450 CURVE SMOOTH",
"516 1450 OFFCURVE",
"108 1042 OFFCURVE",
"108 550 CURVE SMOOTH",
"108 58 OFFCURVE",
"519 -350 OFFCURVE",
"1008 -350 CURVE SMOOTH"
);
},
{
closed = 1;
nodes = (
"1285 1050 OFFCURVE",
"1508 827 OFFCURVE",
"1508 550 CURVE SMOOTH",
"1508 273 OFFCURVE",
"1285 50 OFFCURVE",
"1008 50 CURVE SMOOTH",
"731 50 OFFCURVE",
"508 273 OFFCURVE",
"508 550 CURVE SMOOTH",
"508 827 OFFCURVE",
"731 1050 OFFCURVE",
"1008 1050 CURVE SMOOTH"
);
}
);
width = 2016;
}
);
unicode = 006F;
},
{
glyphname = s;
lastChange = "2020-12-12 01:22:12 +0000";
layers = (
{
background = {
paths = (
{
closed = 1;
nodes = (
"274 689 LINE",
"361 347 OFFCURVE",
"555 95 OFFCURVE",
"864 -63 CURVE",
"1172 95 OFFCURVE",
"1367 347 OFFCURVE",
"1454 689 CURVE",
"1487 821 LINE",
"1391 821 LINE",
"1160 821 OFFCURVE",
"1076 855 OFFCURVE",
"870 1115 CURVE",
"858 1115 LINE",
"651 855 OFFCURVE",
"567 821 OFFCURVE",
"337 821 CURVE",
"241 821 LINE"
);
},
{
closed = 1;
nodes = (
"361 347 OFFCURVE",
"555 95 OFFCURVE",
"864 -63 CURVE",
"1172 95 OFFCURVE",
"1367 347 OFFCURVE",
"1454 689 CURVE",
"1487 821 LINE",
"1391 821 LINE",
"1160 821 OFFCURVE",
"1076 855 OFFCURVE",
"870 1115 CURVE",
"858 1115 LINE",
"651 855 OFFCURVE",
"567 821 OFFCURVE",
"337 821 CURVE",
"241 821 LINE",
"274 689 LINE"
);
},
{
closed = 1;
nodes = (
"794 1133 LINE",
"684 529 LINE",
"854 529 LINE",
"804 260 LINE",
"1138 642 LINE",
"864 642 LINE",
"974 1133 LINE"
);
},
{
closed = 1;
nodes = (
"88 -162 OFFCURVE",
"411 -173 OFFCURVE",
"808 -173 CURVE",
"1155 -173 OFFCURVE",
"1445 -141 OFFCURVE",
"1513 127 CURVE",
"1475 74 OFFCURVE",
"1416 35 OFFCURVE",
"1347 22 CURVE SMOOTH",
"1210 -3 OFFCURVE",
"1080 80 OFFCURVE",
"1060 207 CURVE SMOOTH",
"1039 333 OFFCURVE",
"1132 458 OFFCURVE",
"1269 483 CURVE SMOOTH",
"1359 500 OFFCURVE",
"1447 467 OFFCURVE",
"1502 407 CURVE",
"1414 705 OFFCURVE",
"1134 954 OFFCURVE",
"808 954 CURVE SMOOTH",
"411 954 OFFCURVE",
"88 632 OFFCURVE",
"88 235 CURVE SMOOTH"
);
}
);
};
layerId = "D4EE34A4-BBD8-48A5-B1C1-325A5896F021";
paths = (
{
closed = 1;
nodes = (
"983 1365 LINE",
"983 -265 LINE",
"1033 -265 LINE",
"1033 1365 LINE"
);
},
{
closed = 1;
nodes = (
"134 584 LINE",
"983 -265 LINE",
"1019 -229 LINE",
"170 620 LINE"
);
},
{
closed = 1;
nodes = (
"997 1329 LINE",
"1846 480 LINE",
"1882 516 LINE",
"1033 1365 LINE"
);
}
);
width = 2016;
},
{
background = {
paths = (
{
closed = 1;
nodes = (
"274 689 LINE",
"361 347 OFFCURVE",
"555 95 OFFCURVE",
"864 -63 CURVE",
"1172 95 OFFCURVE",
"1367 347 OFFCURVE",
"1454 689 CURVE",
"1487 821 LINE",
"1391 821 LINE",
"1160 821 OFFCURVE",
"1076 855 OFFCURVE",
"870 1115 CURVE",
"858 1115 LINE",
"651 855 OFFCURVE",
"567 821 OFFCURVE",
"337 821 CURVE",
"241 821 LINE"
);
},
{
closed = 1;
nodes = (
"361 347 OFFCURVE",
"555 95 OFFCURVE",
"864 -63 CURVE",
"1172 95 OFFCURVE",
"1367 347 OFFCURVE",
"1454 689 CURVE",
"1487 821 LINE",
"1391 821 LINE",
"1160 821 OFFCURVE",
"1076 855 OFFCURVE",
"870 1115 CURVE",
"858 1115 LINE",
"651 855 OFFCURVE",
"567 821 OFFCURVE",
"337 821 CURVE",
"241 821 LINE",
"274 689 LINE"
);
},
{
closed = 1;
nodes = (
"794 1133 LINE",
"684 529 LINE",
"854 529 LINE",
"804 260 LINE",
"1138 642 LINE",
"864 642 LINE",
"974 1133 LINE"
);
},
{
closed = 1;
nodes = (
"88 -162 OFFCURVE",
"411 -173 OFFCURVE",
"808 -173 CURVE",
"1155 -173 OFFCURVE",
"1445 -141 OFFCURVE",
"1513 127 CURVE",
"1475 74 OFFCURVE",
"1416 35 OFFCURVE",
"1347 22 CURVE SMOOTH",
"1210 -3 OFFCURVE",
"1080 80 OFFCURVE",
"1060 207 CURVE SMOOTH",
"1039 333 OFFCURVE",
"1132 458 OFFCURVE",
"1269 483 CURVE SMOOTH",
"1359 500 OFFCURVE",
"1447 467 OFFCURVE",
"1502 407 CURVE",
"1414 705 OFFCURVE",
"1134 954 OFFCURVE",
"808 954 CURVE SMOOTH",
"411 954 OFFCURVE",
"88 632 OFFCURVE",
"88 235 CURVE SMOOTH"
);
}
);
};
layerId = m002;
paths = (
{
closed = 1;
nodes = (
"808 1350 LINE",
"808 -250 LINE",
"1208 -250 LINE",
"1208 1350 LINE"
);
},
{
closed = 1;
nodes = (
"60 498 LINE",
"808 -250 LINE",
"1091 33 LINE",
"343 781 LINE"
);
},
{
closed = 1;
nodes = (
"925 1067 LINE",
"1673 319 LINE",
"1956 602 LINE",
"1208 1350 LINE"
);
}
);
width = 2016;
}
);
unicode = 0073;
},
{
glyphname = t;
lastChange = "2020-12-11 23:17:08 +0000";
layers = (
{
background = {
paths = (
{
closed = 1;
nodes = (
"1500 -370 OFFCURVE",
"1908 40 OFFCURVE",
"1908 530 CURVE SMOOTH",
"1908 1022 OFFCURVE",
"1500 1430 OFFCURVE",
"1008 1430 CURVE SMOOTH",
"516 1430 OFFCURVE",
"108 1022 OFFCURVE",
"108 530 CURVE SMOOTH",
"108 38 OFFCURVE",
"516 -370 OFFCURVE",
"1008 -370 CURVE SMOOTH"
);
},
{
closed = 1;
nodes = (
"1479 1380 OFFCURVE",
"1858 1001 OFFCURVE",
"1858 530 CURVE SMOOTH",
"1858 59 OFFCURVE",
"1479 -320 OFFCURVE",
"1008 -320 CURVE SMOOTH",
"537 -320 OFFCURVE",
"158 59 OFFCURVE",
"158 530 CURVE SMOOTH",
"158 1001 OFFCURVE",
"537 1380 OFFCURVE",
"1008 1380 CURVE SMOOTH"
);
}
);
};
layerId = "D4EE34A4-BBD8-48A5-B1C1-325A5896F021";
width = 2016;
},
{
background = {
paths = (
{
closed = 1;
nodes = (
"1500 -350 OFFCURVE",
"1908 60 OFFCURVE",
"1908 550 CURVE SMOOTH",
"1908 1042 OFFCURVE",
"1500 1450 OFFCURVE",
"1008 1450 CURVE SMOOTH",
"516 1450 OFFCURVE",
"108 1042 OFFCURVE",
"108 550 CURVE SMOOTH",
"108 58 OFFCURVE",
"516 -350 OFFCURVE",
"1008 -350 CURVE SMOOTH"
);
},
{
closed = 1;
nodes = (
"1285 1050 OFFCURVE",
"1508 827 OFFCURVE",
"1508 550 CURVE SMOOTH",
"1508 273 OFFCURVE",
"1285 50 OFFCURVE",
"1008 50 CURVE SMOOTH",
"731 50 OFFCURVE",
"508 273 OFFCURVE",
"508 550 CURVE SMOOTH",
"508 827 OFFCURVE",
"731 1050 OFFCURVE",
"1008 1050 CURVE SMOOTH"
);
}
);
};
layerId = m002;
width = 2016;
}
);
unicode = 0074;
},
{
glyphname = u;
lastChange = "2020-11-28 08:32:56 +0000";
layers = (
{
background = {
paths = (
{
closed = 1;
nodes = (
"1008 1562 LINE",
"0 554 LINE",
"1008 -454 LINE",
"2016 554 LINE"
);
},
{
closed = 1;
nodes = (
"75 554 LINE",
"1008 1487 LINE",
"1941 554 LINE",
"1008 -379 LINE"
);
}
);
};
layerId = "D4EE34A4-BBD8-48A5-B1C1-325A5896F021";
paths = (
{
closed = 1;
nodes = (
"458 450 LINE",
"408 450 LINE",
"408 550 LINE SMOOTH",
"408 960 OFFCURVE",
"748 1300 OFFCURVE",
"1158 1300 CURVE SMOOTH",
"1568 1300 OFFCURVE",
"1908 960 OFFCURVE",
"1908 550 CURVE SMOOTH",
"1908 140 OFFCURVE",
"1568 -200 OFFCURVE",
"1158 -200 CURVE",
"1158 -150 LINE",
"1546 -150 OFFCURVE",
"1858 162 OFFCURVE",
"1858 550 CURVE SMOOTH",
"1858 938 OFFCURVE",
"1546 1250 OFFCURVE",
"1158 1250 CURVE SMOOTH",
"770 1250 OFFCURVE",
"458 936 OFFCURVE",
"458 550 CURVE SMOOTH"
);
},
{
closed = 1;
nodes = (
"442 -70 LINE",
"30 550 LINE",
"830 550 LINE"
);
}
);
width = 2016;
},
{
background = {
anchors = (
{
name = bottom;
position = "{1008, 0}";
},
{
name = ogonek;
position = "{1814, 10}";
},
{
name = top;
position = "{1008, 768}";
},
{
name = topright;
position = "{1996, 768}";
}
);
paths = (
{
closed = 1;
nodes = (
"316 631 LINE",
"0 631 LINE",
"0 429 LINE",
"316 429 LINE"
);
},
{
closed = 1;
nodes = (
"1109 1538 LINE",
"907 1538 LINE",
"907 1222 LINE",
"1109 1222 LINE"
);
},
{
closed = 1;
nodes = (
"2016 631 LINE",
"1700 631 LINE",
"1700 429 LINE",
"2016 429 LINE"
);
},
{
closed = 1;
nodes = (
"1109 -162 LINE",
"907 -162 LINE",
"907 -478 LINE",
"1109 -478 LINE"
);
},
{
closed = 1;
nodes = (
"97 841 LINE",
"1319 -381 LINE",
"1319 -96 LINE",
"382 841 LINE"
);
},
{
closed = 1;
nodes = (
"1634 841 LINE",
"697 -96 LINE",
"697 -381 LINE",
"1919 841 LINE"
);
},
{
closed = 1;
nodes = (
"697 1156 LINE",
"1634 219 LINE",
"1919 219 LINE",
"697 1441 LINE"
);
},
{
closed = 1;
nodes = (
"1319 1441 LINE",
"97 219 LINE",
"382 219 LINE",
"1319 1156 LINE"
);
}
);
};
layerId = m002;
paths = (
{
closed = 1;
nodes = (
"778 450 LINE",
"378 450 LINE",
"378 550 LINE SMOOTH",
"378 960 OFFCURVE",
"718 1300 OFFCURVE",
"1128 1300 CURVE SMOOTH",
"1538 1300 OFFCURVE",
"1878 960 OFFCURVE",
"1878 550 CURVE SMOOTH",
"1878 140 OFFCURVE",
"1538 -200 OFFCURVE",
"1128 -200 CURVE",
"1128 200 LINE",
"1322 200 OFFCURVE",
"1478 356 OFFCURVE",
"1478 550 CURVE SMOOTH",
"1478 744 OFFCURVE",
"1322 900 OFFCURVE",
"1128 900 CURVE SMOOTH",
"934 900 OFFCURVE",
"778 743 OFFCURVE",
"778 550 CURVE SMOOTH"
);
},
{
closed = 1;
nodes = (
"595 -296 LINE",
"0 550 LINE",
"1156 550 LINE"
);
}
);
width = 2016;
}
);
unicode = 0075;
},
{
glyphname = v;
lastChange = "2020-11-30 20:08:03 +0000";
layers = (
{
layerId = "D4EE34A4-BBD8-48A5-B1C1-325A5896F021";
paths = (
{
closed = 1;
nodes = (
"1008 108 LINE",
"1856 956 LINE",
"1820 992 LINE",
"972 144 LINE"
);
},
{
closed = 1;
nodes = (
"160 956 LINE",
"1008 108 LINE",
"1044 144 LINE",
"196 992 LINE"
);
}
);
width = 2016;
},
{
layerId = m002;
paths = (
{
closed = 1;
nodes = (
"1008 -16 LINE",
"1856 832 LINE",
"1573 1115 LINE",
"725 267 LINE"
);
},
{
closed = 1;
nodes = (
"160 832 LINE",
"1008 -16 LINE",
"1291 267 LINE",
"443 1115 LINE"
);
}
);
width = 2016;
}
);
unicode = 0076;
},
{
glyphname = w;
lastChange = "2020-11-27 20:48:30 +0000";
layers = (
{
background = {
paths = (
{
closed = 1;
nodes = (
"984 1044 LINE",
"984 324 LINE",
"744 324 LINE",
"744 1044 LINE"
);
},
{
closed = 1;
nodes = (
"264 -156 LINE",
"264 1044 LINE",
"504 1044 LINE",
"504 84 LINE",
"1224 84 LINE",
"1224 1044 LINE",
"1464 1044 LINE",
"1464 -156 LINE"
);
}
);
};
layerId = "D4EE34A4-BBD8-48A5-B1C1-325A5896F021";
width = 1728;
},
{
background = {
paths = (
{
closed = 1;
nodes = (
"984 1044 LINE",
"984 324 LINE",
"744 324 LINE",
"744 1044 LINE"
);
},
{
closed = 1;
nodes = (
"264 -156 LINE",
"264 1044 LINE",
"504 1044 LINE",
"504 84 LINE",
"1224 84 LINE",
"1224 1044 LINE",
"1464 1044 LINE",
"1464 -156 LINE"
);
}
);
};
layerId = m002;
width = 1728;
}
);
unicode = 0077;
},
{
glyphname = x;
lastChange = "2022-02-02 04:14:19 +0000";
layers = (
{
layerId = "D4EE34A4-BBD8-48A5-B1C1-325A5896F021";
paths = (
{
closed = 1;
nodes = (
"1702 1180 LINE",
"278 -244 LINE",
"314 -280 LINE",
"1738 1144 LINE"
);
},
{
closed = 1;
nodes = (
"1702 -280 LINE",
"1738 -244 LINE",
"314 1180 LINE",
"278 1144 LINE"
);
}
);
width = 2016;
},
{
layerId = m002;
paths = (
{
closed = 1;
nodes = (
"1478 1203 LINE",
"255 -20 LINE",
"538 -303 LINE",
"1761 920 LINE"
);
},
{
closed = 1;
nodes = (
"1478 -303 LINE",
"1761 -20 LINE",
"538 1203 LINE",
"255 920 LINE"
);
}
);
width = 2016;
}
);
unicode = 0078;
},
{
glyphname = z;
lastChange = "2020-12-17 04:33:20 +0000";
layers = (
{
layerId = "D4EE34A4-BBD8-48A5-B1C1-325A5896F021";
paths = (
{
closed = 1;
nodes = (
"193 575 LINE",
"193 525 LINE",
"1823 525 LINE",
"1823 575 LINE"
);
},
{
closed = 1;
nodes = (
"229 561 LINE",
"193 525 LINE",
"1042 -324 LINE",
"1078 -288 LINE"
);
},
{
closed = 1;
nodes = (
"974 1424 LINE",
"938 1388 LINE",
"1787 539 LINE",
"1823 575 LINE"
);
}
);
width = 2016;
},
{
layerId = m002;
paths = (
{
closed = 1;
nodes = (
"208 750 LINE",
"208 350 LINE",
"1808 350 LINE",
"1808 750 LINE"
);
},
{
closed = 1;
nodes = (
"491 633 LINE",
"208 350 LINE",
"956 -398 LINE",
"1239 -115 LINE"
);
},
{
closed = 1;
nodes = (
"1060 1498 LINE",
"777 1215 LINE",
"1525 467 LINE",
"1808 750 LINE"
);
}
);
width = 2016;
}
);
unicode = 007A;
},
{
glyphname = zero;
lastChange = "2020-12-11 23:13:23 +0000";
layers = (
{
background = {
paths = (
{
closed = 1;
nodes = (
"144 614 LINE",
"864 -46 LINE",
"1584 614 LINE",
"1584 1046 LINE",
"864 362 LINE",
"144 1046 LINE"
);
}
);
};
layerId = "D4EE34A4-BBD8-48A5-B1C1-325A5896F021";
paths = (
{
closed = 1;
nodes = (
"1500 -350 OFFCURVE",
"1908 60 OFFCURVE",
"1908 550 CURVE SMOOTH",
"1908 1042 OFFCURVE",
"1500 1450 OFFCURVE",
"1008 1450 CURVE SMOOTH",
"516 1450 OFFCURVE",
"108 1042 OFFCURVE",
"108 550 CURVE SMOOTH",
"108 58 OFFCURVE",
"516 -350 OFFCURVE",
"1008 -350 CURVE SMOOTH"
);
},
{
closed = 1;
nodes = (
"1479 1400 OFFCURVE",
"1858 1021 OFFCURVE",
"1858 550 CURVE SMOOTH",
"1858 79 OFFCURVE",
"1479 -300 OFFCURVE",
"1008 -300 CURVE SMOOTH",
"537 -300 OFFCURVE",
"158 79 OFFCURVE",
"158 550 CURVE SMOOTH",
"158 1021 OFFCURVE",
"537 1400 OFFCURVE",
"1008 1400 CURVE SMOOTH"
);
},
{
closed = 1;
nodes = (
"402 -92 LINE",
"1650 1156 LINE",
"1614 1192 LINE",
"366 -56 LINE"
);
}
);
width = 2016;
},
{
background = {
paths = (
{
closed = 1;
nodes = (
"144 614 LINE",
"864 -46 LINE",
"1584 614 LINE",
"1584 1046 LINE",
"864 362 LINE",
"144 1046 LINE"
);
}
);
};
layerId = m002;
paths = (
{
closed = 1;
nodes = (
"1500 -350 OFFCURVE",
"1908 60 OFFCURVE",
"1908 550 CURVE SMOOTH",
"1908 1042 OFFCURVE",
"1500 1450 OFFCURVE",
"1008 1450 CURVE SMOOTH",
"516 1450 OFFCURVE",
"108 1042 OFFCURVE",
"108 550 CURVE SMOOTH",
"108 58 OFFCURVE",
"516 -350 OFFCURVE",
"1008 -350 CURVE SMOOTH"
);
},
{
closed = 1;
nodes = (
"1285 1050 OFFCURVE",
"1508 827 OFFCURVE",
"1508 550 CURVE SMOOTH",
"1508 273 OFFCURVE",
"1285 50 OFFCURVE",
"1008 50 CURVE SMOOTH",
"731 50 OFFCURVE",
"508 273 OFFCURVE",
"508 550 CURVE SMOOTH",
"508 827 OFFCURVE",
"731 1050 OFFCURVE",
"1008 1050 CURVE SMOOTH"
);
},
{
closed = 1;
nodes = (
"626 -115 LINE",
"1673 932 LINE",
"1390 1215 LINE",
"343 168 LINE"
);
}
);
width = 2016;
}
);
rightKerningGroup = novice;
unicode = 0030;
},
{
glyphname = one;
lastChange = "2020-11-27 20:47:12 +0000";
layers = (
{
background = {
paths = (
{
closed = 1;
nodes = (
"144 876 LINE",
"641 420 LINE",
"144 -36 LINE",
"144 -468 LINE",
"864 216 LINE",
"1584 -468 LINE",
"1584 -36 LINE",
"1086 420 LINE",
"1584 876 LINE",
"1584 1308 LINE",
"864 624 LINE",
"144 1308 LINE"
);
},
{
closed = 1;
nodes = (
"1064 -569 LINE",
"1064 1433 LINE",
"664 1433 LINE",
"664 -569 LINE"
);
},
{
closed = 1;
nodes = (
"-137 232 LINE",
"1865 232 LINE",
"1865 632 LINE",
"-137 632 LINE"
);
}
);
};
layerId = "D4EE34A4-BBD8-48A5-B1C1-325A5896F021";
width = 1728;
},
{
background = {
paths = (
{
closed = 1;
nodes = (
"144 876 LINE",
"641 420 LINE",
"144 -36 LINE",
"144 -468 LINE",
"864 216 LINE",
"1584 -468 LINE",
"1584 -36 LINE",
"1086 420 LINE",
"1584 876 LINE",
"1584 1308 LINE",
"864 624 LINE",
"144 1308 LINE"
);
},
{
closed = 1;
nodes = (
"1064 -569 LINE",
"1064 1433 LINE",
"664 1433 LINE",
"664 -569 LINE"
);
},
{
closed = 1;
nodes = (
"-137 232 LINE",
"1865 232 LINE",
"1865 632 LINE",
"-137 632 LINE"
);
}
);
};
layerId = m002;
width = 1728;
}
);
rightKerningGroup = traveller;
unicode = 0031;
},
{
glyphname = two;
lastChange = "2020-11-27 20:45:24 +0000";
layers = (
{
background = {
paths = (
{
closed = 1;
nodes = (
"1264 1000 LINE",
"1264 1360 LINE",
"864 1040 LINE",
"464 1360 LINE",
"464 1000 LINE",
"637 870 LINE",
"264 590 LINE",
"64 750 LINE",
"64 90 LINE",
"264 250 LINE",
"637 -30 LINE",
"464 -160 LINE",
"464 -520 LINE",
"864 -200 LINE",
"1264 -520 LINE",
"1264 -160 LINE",
"1090 -30 LINE",
"1464 250 LINE",
"1664 90 LINE",
"1664 750 LINE",
"1464 590 LINE",
"1090 870 LINE"
);
},
{
closed = 1;
nodes = (
"470 420 LINE",
"864 700 LINE",
"1257 420 LINE",
"864 140 LINE"
);
}
);
};
layerId = "D4EE34A4-BBD8-48A5-B1C1-325A5896F021";
width = 1728;
},
{
background = {
paths = (
{
closed = 1;
nodes = (
"1264 1000 LINE",
"1264 1360 LINE",
"864 1040 LINE",
"464 1360 LINE",
"464 1000 LINE",
"637 870 LINE",
"264 590 LINE",
"64 750 LINE",
"64 90 LINE",
"264 250 LINE",
"637 -30 LINE",
"464 -160 LINE",
"464 -520 LINE",
"864 -200 LINE",
"1264 -520 LINE",
"1264 -160 LINE",
"1090 -30 LINE",
"1464 250 LINE",
"1664 90 LINE",
"1664 750 LINE",
"1464 590 LINE",
"1090 870 LINE"
);
},
{
closed = 1;
nodes = (
"470 420 LINE",
"864 700 LINE",
"1257 420 LINE",
"864 140 LINE"
);
}
);
};
layerId = m002;
width = 1728;
}
);
rightKerningGroup = adventurer;
unicode = 0032;
},
{
glyphname = three;
lastChange = "2020-11-27 20:45:26 +0000";
layers = (
{
background = {
paths = (
{
closed = 1;
nodes = (
"1364 933 LINE",
"1119 1103 LINE",
"1264 1200 LINE",
"1264 1560 LINE",
"864 1273 LINE",
"464 1560 LINE",
"464 1200 LINE",
"609 1103 LINE",
"364 933 LINE",
"64 1150 LINE",
"64 800 LINE",
"616 420 LINE",
"64 40 LINE",
"64 -310 LINE",
"364 -94 LINE",
"609 -264 LINE",
"464 -360 LINE",
"464 -720 LINE",
"864 -434 LINE",
"1264 -720 LINE",
"1264 -360 LINE",
"1119 -264 LINE",
"1364 -94 LINE",
"1664 -310 LINE",
"1664 40 LINE",
"1111 420 LINE",
"1664 800 LINE",
"1664 1150 LINE"
);
},
{
closed = 1;
nodes = (
"864 -104 LINE",
"610 75 LINE",
"864 250 LINE",
"1117 75 LINE"
);
},
{
closed = 1;
nodes = (
"864 943 LINE",
"1117 764 LINE",
"864 590 LINE",
"610 764 LINE"
);
}
);
};
layerId = "D4EE34A4-BBD8-48A5-B1C1-325A5896F021";
width = 1728;
},
{
background = {
paths = (
{
closed = 1;
nodes = (
"1364 933 LINE",
"1119 1103 LINE",
"1264 1200 LINE",
"1264 1560 LINE",
"864 1273 LINE",
"464 1560 LINE",
"464 1200 LINE",
"609 1103 LINE",
"364 933 LINE",
"64 1150 LINE",
"64 800 LINE",
"616 420 LINE",
"64 40 LINE",
"64 -310 LINE",
"364 -94 LINE",
"609 -264 LINE",
"464 -360 LINE",
"464 -720 LINE",
"864 -434 LINE",
"1264 -720 LINE",
"1264 -360 LINE",
"1119 -264 LINE",
"1364 -94 LINE",
"1664 -310 LINE",
"1664 40 LINE",
"1111 420 LINE",
"1664 800 LINE",
"1664 1150 LINE"
);
},
{
closed = 1;
nodes = (
"864 -104 LINE",
"610 75 LINE",
"864 250 LINE",
"1117 75 LINE"
);
},
{
closed = 1;
nodes = (
"864 943 LINE",
"1117 764 LINE",
"864 590 LINE",
"610 764 LINE"
);
}
);
};
layerId = m002;
width = 1728;
}
);
rightKerningGroup = veteran;
unicode = 0033;
},
{
glyphname = four;
lastChange = "2020-11-27 20:45:36 +0000";
layers = (
{
background = {
paths = (
{
closed = 1;
nodes = (
"144 354 LINE",
"642 210 LINE",
"144 67 LINE",
"144 -154 LINE",
"864 88 LINE",
"1584 -154 LINE",
"1584 67 LINE",
"1086 210 LINE",
"1584 354 LINE",
"1584 575 LINE",
"864 333 LINE",
"144 575 LINE"
);
},
{
closed = 1;
nodes = (
"144 -18 LINE",
"642 -162 LINE",
"144 -306 LINE",
"144 -527 LINE",
"864 -285 LINE",
"1584 -527 LINE",
"1584 -306 LINE",
"1086 -162 LINE",
"1584 -18 LINE",
"1584 203 LINE",
"864 -40 LINE",
"144 203 LINE"
);
},
{
closed = 1;
nodes = (
"144 727 LINE",
"642 583 LINE",
"144 440 LINE",
"144 219 LINE",
"864 461 LINE",
"1584 219 LINE",
"1584 440 LINE",
"1086 583 LINE",
"1584 727 LINE",
"1584 948 LINE",
"864 706 LINE",
"144 948 LINE"
);
},
{
closed = 1;
nodes = (
"144 1100 LINE",
"642 956 LINE",
"144 812 LINE",
"144 591 LINE",
"864 834 LINE",
"1584 591 LINE",
"1584 812 LINE",
"1086 956 LINE",
"1584 1100 LINE",
"1584 1321 LINE",
"864 1079 LINE",
"144 1321 LINE"
);
},
{
closed = 1;
nodes = (
"864 -2612 LINE",
"1569 -1966 LINE",
"864 -1320 LINE",
"159 -1966 LINE"
);
},
{
closed = 1;
nodes = (
"864 -1728 LINE",
"1115 -1966 LINE",
"864 -2204 LINE",
"613 -1966 LINE"
);
},
{
closed = 1;
nodes = (
"144 -1066 LINE",
"864 -1726 LINE",
"1584 -1066 LINE",
"1584 -634 LINE",
"864 -1318 LINE",
"144 -634 LINE"
);
}
);
};
layerId = "D4EE34A4-BBD8-48A5-B1C1-325A5896F021";
width = 1728;
},
{
background = {
paths = (
{
closed = 1;
nodes = (
"144 354 LINE",
"642 210 LINE",
"144 67 LINE",
"144 -154 LINE",
"864 88 LINE",
"1584 -154 LINE",
"1584 67 LINE",
"1086 210 LINE",
"1584 354 LINE",
"1584 575 LINE",
"864 333 LINE",
"144 575 LINE"
);
},
{
closed = 1;
nodes = (
"144 -18 LINE",
"642 -162 LINE",
"144 -306 LINE",
"144 -527 LINE",
"864 -285 LINE",
"1584 -527 LINE",
"1584 -306 LINE",
"1086 -162 LINE",
"1584 -18 LINE",
"1584 203 LINE",
"864 -40 LINE",
"144 203 LINE"
);
},
{
closed = 1;
nodes = (
"144 727 LINE",
"642 583 LINE",
"144 440 LINE",
"144 219 LINE",
"864 461 LINE",
"1584 219 LINE",
"1584 440 LINE",
"1086 583 LINE",
"1584 727 LINE",
"1584 948 LINE",
"864 706 LINE",
"144 948 LINE"
);
},
{
closed = 1;
nodes = (
"144 1100 LINE",
"642 956 LINE",
"144 812 LINE",
"144 591 LINE",
"864 834 LINE",
"1584 591 LINE",
"1584 812 LINE",
"1086 956 LINE",
"1584 1100 LINE",
"1584 1321 LINE",
"864 1079 LINE",
"144 1321 LINE"
);
},
{
closed = 1;
nodes = (
"864 -2612 LINE",
"1569 -1966 LINE",
"864 -1320 LINE",
"159 -1966 LINE"
);
},
{
closed = 1;
nodes = (
"864 -1728 LINE",
"1115 -1966 LINE",
"864 -2204 LINE",
"613 -1966 LINE"
);
},
{
closed = 1;
nodes = (
"144 -1066 LINE",
"864 -1726 LINE",
"1584 -1066 LINE",
"1584 -634 LINE",
"864 -1318 LINE",
"144 -634 LINE"
);
}
);
};
layerId = m002;
width = 1728;
}
);
rightKerningGroup = hero;
unicode = 0034;
},
{
glyphname = five;
lastChange = "2020-11-27 20:47:13 +0000";
layers = (
{
background = {
paths = (
{
closed = 1;
nodes = (
"298 -217 LINE",
"1413 898 LINE",
"1230 1081 LINE",
"115 -34 LINE"
);
},
{
closed = 1;
nodes = (
"115 898 LINE",
"1230 -217 LINE",
"1413 -34 LINE",
"298 1081 LINE"
);
},
{
closed = 1;
nodes = (
"586 661 LINE",
"1131 1206 LINE",
"948 1389 LINE",
"403 844 LINE"
);
},
{
closed = 1;
nodes = (
"586 1389 LINE",
"403 1206 LINE",
"948 661 LINE",
"1131 844 LINE"
);
},
{
closed = 1;
nodes = (
"942 203 LINE",
"397 -342 LINE",
"580 -525 LINE",
"1125 20 LINE"
);
},
{
closed = 1;
nodes = (
"942 -525 LINE",
"1125 -342 LINE",
"580 203 LINE",
"397 20 LINE"
);
}
);
};
layerId = "D4EE34A4-BBD8-48A5-B1C1-325A5896F021";
width = 1728;
},
{
background = {
paths = (
{
closed = 1;
nodes = (
"298 -217 LINE",
"1413 898 LINE",
"1230 1081 LINE",
"115 -34 LINE"
);
},
{
closed = 1;
nodes = (
"115 898 LINE",
"1230 -217 LINE",
"1413 -34 LINE",
"298 1081 LINE"
);
},
{
closed = 1;
nodes = (
"586 661 LINE",
"1131 1206 LINE",
"948 1389 LINE",
"403 844 LINE"
);
},
{
closed = 1;
nodes = (
"586 1389 LINE",
"403 1206 LINE",
"948 661 LINE",
"1131 844 LINE"
);
},
{
closed = 1;
nodes = (
"942 203 LINE",
"397 -342 LINE",
"580 -525 LINE",
"1125 20 LINE"
);
},
{
closed = 1;
nodes = (
"942 -525 LINE",
"1125 -342 LINE",
"580 203 LINE",
"397 20 LINE"
);
}
);
};
layerId = m002;
width = 1728;
}
);
rightKerningGroup = legend;
unicode = 0035;
},
{
glyphname = period;
lastChange = "2020-12-11 23:15:57 +0000";
layers = (
{
layerId = "D4EE34A4-BBD8-48A5-B1C1-325A5896F021";
paths = (
{
closed = 1;
nodes = (
"1254 100 OFFCURVE",
"1458 305 OFFCURVE",
"1458 550 CURVE SMOOTH",
"1458 796 OFFCURVE",
"1254 1000 OFFCURVE",
"1008 1000 CURVE SMOOTH",
"762 1000 OFFCURVE",
"558 796 OFFCURVE",
"558 550 CURVE SMOOTH",
"558 304 OFFCURVE",
"764 100 OFFCURVE",
"1008 100 CURVE SMOOTH"
);
}
);
width = 2016;
},
{
layerId = m002;
paths = (
{
closed = 1;
nodes = (
"1254 100 OFFCURVE",
"1458 305 OFFCURVE",
"1458 550 CURVE SMOOTH",
"1458 796 OFFCURVE",
"1254 1000 OFFCURVE",
"1008 1000 CURVE SMOOTH",
"762 1000 OFFCURVE",
"558 796 OFFCURVE",
"558 550 CURVE SMOOTH",
"558 304 OFFCURVE",
"764 100 OFFCURVE",
"1008 100 CURVE SMOOTH"
);
}
);
width = 2016;
}
);
unicode = 002E;
},
{
glyphname = hyphen;
lastChange = "2020-11-28 23:08:00 +0000";
layers = (
{
layerId = "D4EE34A4-BBD8-48A5-B1C1-325A5896F021";
paths = (
{
closed = 1;
nodes = (
"1823 525 LINE",
"1823 575 LINE",
"193 575 LINE",
"193 525 LINE"
);
}
);
width = 2016;
},
{
layerId = m002;
paths = (
{
closed = 1;
nodes = (
"1808 350 LINE",
"1808 750 LINE",
"208 750 LINE",
"208 350 LINE"
);
}
);
width = 2016;
}
);
unicode = 002D;
},
{
glyphname = plus;
lastChange = "2022-02-02 04:14:15 +0000";
layers = (
{
layerId = "D4EE34A4-BBD8-48A5-B1C1-325A5896F021";
paths = (
{
closed = 1;
nodes = (
"1823 425 LINE",
"1823 475 LINE",
"193 475 LINE",
"193 425 LINE"
);
},
{
closed = 1;
nodes = (
"983 -365 LINE",
"1033 -365 LINE",
"1033 1265 LINE",
"983 1265 LINE"
);
}
);
width = 2016;
},
{
layerId = m002;
paths = (
{
closed = 1;
nodes = (
"1808 250 LINE",
"1808 650 LINE",
"208 650 LINE",
"208 250 LINE"
);
},
{
closed = 1;
nodes = (
"808 -350 LINE",
"1208 -350 LINE",
"1208 1250 LINE",
"808 1250 LINE"
);
}
);
width = 2016;
}
);
unicode = 002B;
},
{
glyphname = greater;
lastChange = "2020-12-11 08:13:20 +0000";
layers = (
{
layerId = "D4EE34A4-BBD8-48A5-B1C1-325A5896F021";
paths = (
{
closed = 1;
nodes = (
"607 -263 LINE",
"643 -299 LINE",
"1492 550 LINE",
"1456 586 LINE"
);
},
{
closed = 1;
nodes = (
"1456 514 LINE",
"1492 550 LINE",
"643 1399 LINE",
"607 1363 LINE"
);
}
);
width = 2016;
},
{
layerId = m002;
paths = (
{
closed = 1;
nodes = (
"525 -15 LINE",
"808 -298 LINE",
"1656 550 LINE",
"1373 833 LINE"
);
},
{
closed = 1;
nodes = (
"1373 267 LINE",
"1656 550 LINE",
"808 1398 LINE",
"525 1115 LINE"
);
}
);
width = 2016;
}
);
unicode = 003E;
},
